<svg xmlns="http://www.w3.org/2000/svg" xmlns:xlink="http://www.w3.org/1999/xlink" xmlns:lucid="lucid" width="1258.04" height="631.6"><g transform="translate(-240 -361.921897023464)" lucid:page-tab-id="0_0"><path d="M260 913.52h240v60H260z" fill="none"/><use xlink:href="#a" transform="matrix(1,0,0,1,260,913.5245833678803) translate(85.79444444444445 36.266666666666666)"/><path d="M360 570c0 5.52-4.48 10-10 10s-10-4.48-10-10 4.48-10 10-10 10 4.48 10 10z" stroke="#7769e0" stroke-width="2" fill="url(#b)"/><path d="M360 683.52c0 5.53-4.48 10-10 10s-10-4.47-10-10c0-5.52 4.48-10 10-10s10 4.48 10 10z" stroke="#e55050" stroke-width="2" fill="url(#c)"/><path d="M365 570c0 1.1-.88 2-2 2-1.1 0-2-.9-2-2s.9-2 2-2c1.12 0 2 .9 2 2zm8.08 0c0 1.1-.9 2-2 2s-2-.9-2-2 .9-2 2-2 2 .9 2 2zm8.06 0c0 1.1-.9 2-2 2s-2-.9-2-2 .9-2 2-2 2 .9 2 2zm8.07 0c0 1.1-.9 2-2 2s-2-.9-2-2 .9-2 2-2 2 .9 2 2zm8.07 0c0 1.1-.9 2-2 2s-2-.9-2-2 .9-2 2-2 2 .9 2 2zm8.07 0c0 1.1-.9 2-2 2s-2-.9-2-2 .9-2 2-2 2 .9 2 2zm8.06 0c0 1.1-.9 2-2 2s-2-.9-2-2 .9-2 2-2 2 .9 2 2zm8.07 0c0 1.1-.9 2-2 2s-2-.9-2-2 .9-2 2-2 2 .9 2 2zm8.06 0c0 1.1-.9 2-2 2s-2-.9-2-2 .9-2 2-2 2 .9 2 2zm8.07 0c0 1.1-.9 2-2 2s-2-.9-2-2 .9-2 2-2 2 .9 2 2zm8.07 0c0 1.1-.9 2-2 2s-2-.9-2-2 .9-2 2-2 2 .9 2 2zm8.06 0c0 1.1-.9 2-2 2s-2-.9-2-2 .9-2 2-2 2 .9 2 2zm8.07 0c0 1.1-.9 2-2 2s-2-.9-2-2 .9-2 2-2 2 .9 2 2zm8.06 0c0 1.1-.9 2-2 2s-2-.9-2-2 .9-2 2-2 2 .9 2 2zm8.07 0c0 1.1-.9 2-2 2s-2-.9-2-2 .9-2 2-2 2 .9 2 2zm8.06 0c0 1.1-.9 2-2 2s-2-.9-2-2 .9-2 2-2 2 .9 2 2zm8.06 0c0 1.1-.9 2-2 2s-2-.9-2-2 .9-2 2-2 2 .9 2 2zm8.06 0c0 1.1-.9 2-2 2s-2-.9-2-2 .9-2 2-2 2 .9 2 2zm8.07 0c0 1.1-.9 2-2 2-1.12 0-2-.9-2-2s.88-2 2-2c1.1 0 2 .9 2 2z" fill="#0c7cba"/><path d="M363.06 572h-2.3l.25-2-.25-2h2.3" fill="#0c7cba"/><path d="M532.52 570l-14.27 4.64v-9.28z" stroke="#0c7cba" stroke-width="4" fill="#0c7cba"/><path d="M365 683.52c0 1.1-.88 2-2 2-1.1 0-2-.9-2-2s.9-2 2-2c1.12 0 2 .9 2 2zm8.08 0c0 1.1-.9 2-2 2s-2-.9-2-2 .9-2 2-2 2 .9 2 2zm8.06 0c0 1.1-.9 2-2 2s-2-.9-2-2 .9-2 2-2 2 .9 2 2zm8.07 0c0 1.1-.9 2-2 2s-2-.9-2-2 .9-2 2-2 2 .9 2 2zm8.07 0c0 1.1-.9 2-2 2s-2-.9-2-2 .9-2 2-2 2 .9 2 2zm8.07 0c0 1.1-.9 2-2 2s-2-.9-2-2 .9-2 2-2 2 .9 2 2zm8.06 0c0 1.1-.9 2-2 2s-2-.9-2-2 .9-2 2-2 2 .9 2 2zm8.07 0c0 1.1-.9 2-2 2s-2-.9-2-2 .9-2 2-2 2 .9 2 2zm8.06 0c0 1.1-.9 2-2 2s-2-.9-2-2 .9-2 2-2 2 .9 2 2zm8.07 0c0 1.1-.9 2-2 2s-2-.9-2-2 .9-2 2-2 2 .9 2 2zm8.07 0c0 1.1-.9 2-2 2s-2-.9-2-2 .9-2 2-2 2 .9 2 2zm8.06 0c0 1.1-.9 2-2 2s-2-.9-2-2 .9-2 2-2 2 .9 2 2zm8.07 0c0 1.1-.9 2-2 2s-2-.9-2-2 .9-2 2-2 2 .9 2 2zm8.06 0c0 1.1-.9 2-2 2s-2-.9-2-2 .9-2 2-2 2 .9 2 2zm8.07 0c0 1.1-.9 2-2 2s-2-.9-2-2 .9-2 2-2 2 .9 2 2zm8.06 0c0 1.1-.9 2-2 2s-2-.9-2-2 .9-2 2-2 2 .9 2 2zm8.06 0c0 1.1-.9 2-2 2s-2-.9-2-2 .9-2 2-2 2 .9 2 2zm8.06 0c0 1.1-.9 2-2 2s-2-.9-2-2 .9-2 2-2 2 .9 2 2zm8.07 0c0 1.1-.9 2-2 2-1.12 0-2-.9-2-2s.88-2 2-2c1.1 0 2 .9 2 2z" fill="#0c7cba"/><path d="M363.06 685.52h-2.3l.25-2-.25-2h2.3" fill="#0c7cba"/><path d="M532.52 683.52l-14.27 4.64v-9.27z" stroke="#0c7cba" stroke-width="4" fill="#0c7cba"/><path d="M560 570c0 5.52-4.48 10-10 10s-10-4.48-10-10 4.48-10 10-10 10 4.48 10 10z" stroke="#7769e0" stroke-width="2" fill="url(#d)"/><path d="M560 683.52c0 5.53-4.48 10-10 10s-10-4.47-10-10c0-5.52 4.48-10 10-10s10 4.48 10 10z" stroke="#e55050" stroke-width="2" fill="url(#e)"/><path d="M560 450c0 5.52-4.48 10-10 10s-10-4.48-10-10 4.48-10 10-10 10 4.48 10 10z" stroke="#7769e0" stroke-width="2" fill="url(#f)"/><path d="M560 803.52c0 5.53-4.48 10-10 10s-10-4.47-10-10c0-5.52 4.48-10 10-10s10 4.48 10 10z" stroke="#e55050" stroke-width="2" fill="url(#g)"/><path d="M552 557c0 1.1-.9 2-2 2s-2-.9-2-2 .9-2 2-2 2 .9 2 2zm0-8.15c0 1.1-.9 2-2 2s-2-.9-2-2 .9-2 2-2 2 .9 2 2zm0-8.14c0 1.12-.9 2-2 2s-2-.88-2-2c0-1.1.9-2 2-2s2 .9 2 2zm0-8.12c0 1.1-.9 2-2 2s-2-.9-2-2 .9-2 2-2 2 .9 2 2zm0-8.14c0 1.1-.9 2-2 2s-2-.9-2-2 .9-2 2-2 2 .9 2 2zm0-8.14c0 1.1-.9 2-2 2s-2-.9-2-2 .9-2 2-2 2 .9 2 2zm0-8.14c0 1.1-.9 2-2 2s-2-.9-2-2 .9-2 2-2 2 .9 2 2zm0-8.14c0 1.1-.9 2-2 2s-2-.9-2-2 .9-2 2-2 2 .9 2 2zm0-8.14c0 1.1-.9 2-2 2s-2-.9-2-2 .9-2 2-2 2 .9 2 2zm0-8.13c0 1.1-.9 2-2 2s-2-.9-2-2 .9-2 2-2 2 .9 2 2z" fill="#7769e0"/><path d="M552 559.25l-2-.26-2 .25v-2.3h4" fill="#7769e0"/><path d="M550 467.48l4.64 14.27h-9.28z" stroke="#7769e0" stroke-width="4" fill="#7769e0"/><path d="M552 696.53c0 1.1-.9 2-2 2s-2-.9-2-2 .9-2 2-2 2 .9 2 2zm0 8.14c0 1.1-.9 2-2 2s-2-.9-2-2 .9-2 2-2 2 .9 2 2zm0 8.14c0 1.12-.9 2-2 2s-2-.88-2-2c0-1.1.9-2 2-2s2 .9 2 2zm0 8.15c0 1.1-.9 2-2 2s-2-.9-2-2 .9-2 2-2 2 .9 2 2zm0 8.14c0 1.1-.9 2-2 2s-2-.9-2-2c0-1.12.9-2 2-2s2 .88 2 2zm0 8.13c0 1.1-.9 2-2 2s-2-.9-2-2 .9-2 2-2 2 .9 2 2zm0 8.13c0 1.1-.9 2-2 2s-2-.9-2-2 .9-2 2-2 2 .9 2 2zm0 8.14c0 1.1-.9 2-2 2s-2-.9-2-2 .9-2 2-2 2 .9 2 2zm0 8.14c0 1.1-.9 2-2 2s-2-.9-2-2 .9-2 2-2 2 .9 2 2z" fill="#c92d39"/><path d="M550 694.53l2-.26v2.32h-4v-2.33" fill="#c92d39"/><path d="M550 786.04l-4.64-14.26h9.28z" stroke="#c92d39" stroke-width="4" fill="#c92d39"/><path d="M350.02 558l.1-4.75.36-5.66.58-5.6.83-5.56 1.04-5.52 1.3-5.5 1.52-5.48 1.78-5.5 2.04-5.48 2.32-5.5 2.6-5.54 2.92-5.56 3.23-5.6 3.6-5.66 3.95-5.7 4.36-5.73 4.8-5.8 5.24-5.83 5.75-5.87 6.28-5.9 6.84-5.9 7.43-5.88 8.04-5.85 8.68-5.76 9.3-5.65 9.96-5.46 10.56-5.25 11.12-4.95 11.63-4.6 12.03-4.2 12.37-3.73 12.57-3.23 12.65-2.7 12.63-2.12 12.47-1.58 12.22-1.02 11.9-.5h11.47l11.04.46 10.54.88 10.05 1.27 9.54 1.6 9.04 1.93 8.56 2.2 8.1 2.44 7.63 2.66 7.2 2.85 6.83 3.05 6.45 3.2 6.1 3.35 5.77 3.5 5.46 3.63 5.2 3.76 4.9 3.9 4.67 4 4.43 4.17.88.9" stroke="#7769e0" stroke-width="2" fill="none"/><path d="M351.02 557.98l-.02 1.14-1-.13-1 .12.02-1.18" fill="#7769e0"/><path d="M740.98 439.1l-12.92-7.63 6.95-6.13z" stroke="#7769e0" stroke-width="2" fill="#7769e0"/><path d="M565 450c0 1.1-.88 2-2 2-1.1 0-2-.9-2-2s.9-2 2-2c1.12 0 2 .9 2 2zm8.08 0c0 1.1-.9 2-2 2s-2-.9-2-2 .9-2 2-2 2 .9 2 2zm8.06 0c0 1.1-.9 2-2 2s-2-.9-2-2 .9-2 2-2 2 .9 2 2zm8.07 0c0 1.1-.9 2-2 2s-2-.9-2-2 .9-2 2-2 2 .9 2 2zm8.07 0c0 1.1-.9 2-2 2s-2-.9-2-2 .9-2 2-2 2 .9 2 2zm8.07 0c0 1.1-.9 2-2 2s-2-.9-2-2 .9-2 2-2 2 .9 2 2zm8.06 0c0 1.1-.9 2-2 2s-2-.9-2-2 .9-2 2-2 2 .9 2 2zm8.07 0c0 1.1-.9 2-2 2s-2-.9-2-2 .9-2 2-2 2 .9 2 2zm8.06 0c0 1.1-.9 2-2 2s-2-.9-2-2 .9-2 2-2 2 .9 2 2zm8.07 0c0 1.1-.9 2-2 2s-2-.9-2-2 .9-2 2-2 2 .9 2 2zm8.07 0c0 1.1-.9 2-2 2s-2-.9-2-2 .9-2 2-2 2 .9 2 2zm8.06 0c0 1.1-.9 2-2 2s-2-.9-2-2 .9-2 2-2 2 .9 2 2zm8.07 0c0 1.1-.9 2-2 2s-2-.9-2-2 .9-2 2-2 2 .9 2 2zm8.06 0c0 1.1-.9 2-2 2s-2-.9-2-2 .9-2 2-2 2 .9 2 2zm8.07 0c0 1.1-.9 2-2 2s-2-.9-2-2 .9-2 2-2 2 .9 2 2zm8.06 0c0 1.1-.9 2-2 2s-2-.9-2-2 .9-2 2-2 2 .9 2 2zm8.06 0c0 1.1-.9 2-2 2s-2-.9-2-2 .9-2 2-2 2 .9 2 2zm8.06 0c0 1.1-.9 2-2 2s-2-.9-2-2 .9-2 2-2 2 .9 2 2zm8.07 0c0 1.1-.9 2-2 2-1.12 0-2-.9-2-2s.88-2 2-2c1.1 0 2 .9 2 2zm8.05 0c0 1.1-.9 2-2 2s-2-.9-2-2 .9-2 2-2 2 .9 2 2z" fill="#19967d"/><path d="M563.06 452h-2.3l.25-2-.25-2h2.3" fill="#19967d"/><path d="M732.52 450l-14.27 4.64v-9.28z" stroke="#19967d" stroke-width="4" fill="#19967d"/><path d="M565 803.52c0 1.1-.88 2-2 2-1.1 0-2-.9-2-2s.9-2 2-2c1.12 0 2 .9 2 2zm8.08 0c0 1.1-.9 2-2 2s-2-.9-2-2 .9-2 2-2 2 .9 2 2zm8.06 0c0 1.1-.9 2-2 2s-2-.9-2-2 .9-2 2-2 2 .9 2 2zm8.07 0c0 1.1-.9 2-2 2s-2-.9-2-2 .9-2 2-2 2 .9 2 2zm8.07 0c0 1.1-.9 2-2 2s-2-.9-2-2 .9-2 2-2 2 .9 2 2zm8.07 0c0 1.1-.9 2-2 2s-2-.9-2-2 .9-2 2-2 2 .9 2 2zm8.06 0c0 1.1-.9 2-2 2s-2-.9-2-2 .9-2 2-2 2 .9 2 2zm8.07 0c0 1.1-.9 2-2 2s-2-.9-2-2 .9-2 2-2 2 .9 2 2zm8.06 0c0 1.1-.9 2-2 2s-2-.9-2-2 .9-2 2-2 2 .9 2 2zm8.07 0c0 1.1-.9 2-2 2s-2-.9-2-2 .9-2 2-2 2 .9 2 2zm8.07 0c0 1.1-.9 2-2 2s-2-.9-2-2 .9-2 2-2 2 .9 2 2zm8.06 0c0 1.1-.9 2-2 2s-2-.9-2-2 .9-2 2-2 2 .9 2 2zm8.07 0c0 1.1-.9 2-2 2s-2-.9-2-2 .9-2 2-2 2 .9 2 2zm8.06 0c0 1.1-.9 2-2 2s-2-.9-2-2 .9-2 2-2 2 .9 2 2zm8.07 0c0 1.1-.9 2-2 2s-2-.9-2-2 .9-2 2-2 2 .9 2 2zm8.06 0c0 1.1-.9 2-2 2s-2-.9-2-2 .9-2 2-2 2 .9 2 2zm8.06 0c0 1.1-.9 2-2 2s-2-.9-2-2 .9-2 2-2 2 .9 2 2zm8.06 0c0 1.1-.9 2-2 2s-2-.9-2-2 .9-2 2-2 2 .9 2 2zm8.07 0c0 1.1-.9 2-2 2-1.12 0-2-.9-2-2s.88-2 2-2c1.1 0 2 .9 2 2zm8.05 0c0 1.1-.9 2-2 2s-2-.9-2-2 .9-2 2-2 2 .9 2 2z" fill="#19967d"/><path d="M563.06 805.52h-2.3l.25-2-.25-2h2.3" fill="#19967d"/><path d="M732.52 803.52l-14.27 4.64v-9.27z" stroke="#19967d" stroke-width="4" fill="#19967d"/><path d="M760 803.52c0 5.53-4.48 10-10 10s-10-4.47-10-10c0-5.52 4.48-10 10-10s10 4.48 10 10z" stroke="#e55050" stroke-width="2" fill="url(#h)"/><path d="M760 450c0 5.52-4.48 10-10 10s-10-4.48-10-10 4.48-10 10-10 10 4.48 10 10z" stroke="#7769e0" stroke-width="2" fill="url(#i)"/><path d="M350.02 695.54l.1 4.7.35 5.66.6 5.58.8 5.53 1.06 5.5 1.28 5.5 1.54 5.45 1.77 5.46 2.05 5.48 2.3 5.48 2.6 5.5 2.9 5.55 3.22 5.6 3.56 5.6 3.94 5.68 4.34 5.7 4.78 5.77 5.23 5.8 5.73 5.85 6.24 5.86 6.8 5.87 7.4 5.86 8 5.8 8.64 5.73 9.28 5.62 9.9 5.44 10.52 5.2 11.07 4.93 11.6 4.6 12 4.17 12.33 3.72 12.54 3.22 12.63 2.68 12.6 2.14 12.45 1.57 12.2 1.03 11.9.5h11.47l11-.47 10.56-.9 10.04-1.26 9.54-1.6 9.04-1.93 8.55-2.18 8.1-2.44 7.63-2.66 7.2-2.86 6.83-3.03 6.43-3.2 6.1-3.35 5.76-3.5 5.46-3.62 5.17-3.76 4.9-3.9 4.67-4 4.42-4.17.85-.87" stroke="#c92d39" stroke-width="2" fill="none"/><path d="M350 694.53l1-.13.02 1.14-2 .04-.02-1.18" fill="#c92d39"/><path d="M740.07 813.73l-5.97 13.76-6.95-6.15z" stroke="#c92d39" stroke-width="2" fill="#c92d39"/><path d="M289.2 553.38H340v37.38h-50.8z" fill="#fff" fill-opacity="0"/><path d="M305.82 570.45H305c-.3-1.26-.74-2.06-1.94-2.06h-3.48c-1.26 0-1.62.7-2.1 2.05h-.82c.24-.86.34-1.96.34-2.88 0-1-.14-2.86-.37-3.92h.83c.46 1.36.8 1.93 2.1 1.93h3.5c1.13 0 1.7-.8 1.93-1.93h.82c-.24.93-.37 1.7-.37 2.66 0 1 .13 3.12.37 4.15m6.2-3.15c0 6.83-4.48 11.44-10.85 11.44-6.43 0-10.84-4.64-10.84-11.54 0-6.73 4.38-11.34 10.84-11.34 6.5 0 10.85 4.87 10.85 11.44m-3.78-.2c0-3.78-1.13-6.9-3.02-8.5-1.2-.98-2.52-1.55-4.08-1.55-1.8 0-3.45.73-4.74 2.22-1.43 1.63-2.3 4.85-2.3 8 0 3.94.97 6.93 3 8.8 1.12 1 2.58 1.48 4.1 1.48 1.67 0 3.12-.5 4.3-1.6 1.8-1.75 2.74-4.87 2.74-8.85M317.2 577.37h.05l1.34-1.7c1.25-1.63 2.42-2.76 3.8-2.76.92 0 1.42.48 1.42 1.28 0 .5-.22 1.22-.36 1.83l-1.76 7.35c-.35 1.47-.53 2.65-.53 3.37 0 .33.02.64.1.82h-1.77c-.2-.25-.26-.65-.26-1.08 0-.96.33-2.3 2.32-10.22.07-.23.2-.73.2-1.12 0-.4-.27-.68-.66-.68-.94 0-4 3.96-4.7 6.35l-.72 2.45h-1.83l1.8-7.13c.15-.58.3-1.05.3-1.38 0-.2-.04-.3-.3-.3-.5 0-1.03.68-1.4 1.17l-.3-.23c.1-.16.5-.8 1.07-1.36.6-.57 1.46-1.1 1.97-1.1.74 0 .95.4.95.97 0 1-.54 2.6-.75 3.5M336.3 573.22l-.1.28c-1.58.16-2.23.58-3.12 1.36l-2.5 2.16 1.5 3.56c.36.82.65 1.38 1.25 1.38.7 0 1.22-1 1.74-1.7l.35.25c-.28.5-1.38 3-2.98 3-1.07 0-1.57-1.23-1.83-1.84l-1.46-3.45-1.32 1.16-1.05 3.9H325l3.46-13.82c.04-.14.07-.3.07-.47 0-.25-.24-.5-.75-.5-.2 0-.45 0-.64.03l-.07-.32 3.7-.6-2.64 10.7 3.92-3.5c.25-.23.5-.53.5-.84 0-.28-.4-.44-.62-.44h-.28l.1-.28h4.54"/><path d="M289.2 666.9H340v45.66h-50.8z" fill="#fff" fill-opacity="0"/><path d="M305.82 686.05H305c-.3-1.27-.74-2.06-1.94-2.06h-3.48c-1.26 0-1.62.7-2.1 2.05h-.82c.24-.87.34-1.96.34-2.9 0-1-.14-2.84-.37-3.9h.83c.46 1.36.8 1.92 2.1 1.92h3.5c1.13 0 1.7-.8 1.93-1.92h.82c-.24.92-.37 1.7-.37 2.65 0 1 .13 3.12.37 4.15m6.2-3.16c0 6.83-4.48 11.44-10.85 11.44-6.43 0-10.84-4.65-10.84-11.55 0-6.74 4.38-11.35 10.84-11.35 6.5 0 10.85 4.88 10.85 11.44m-3.78-.2c0-3.8-1.13-6.9-3.02-8.5-1.2-1-2.52-1.55-4.08-1.55-1.8 0-3.45.73-4.74 2.22-1.43 1.62-2.3 4.84-2.3 8 0 3.94.97 6.92 3 8.78 1.12 1.03 2.58 1.5 4.1 1.5 1.67 0 3.12-.5 4.3-1.6 1.8-1.76 2.74-4.87 2.74-8.85M314.97 682.43l-.8-.28c.6-2.9 2.1-9.33 2.5-10.7.4-1.2 1.1-1.6 1.8-1.6.84 0 1.6.5 1.6 1.65 0 .26-.13.82-.25 1.1-.5 1.34-3.42 7.18-4.85 9.83M317.2 698.23h.05l1.34-1.7c1.25-1.62 2.42-2.75 3.8-2.75.92 0 1.42.47 1.42 1.27 0 .5-.22 1.2-.36 1.82l-1.76 7.34c-.35 1.5-.53 2.66-.53 3.4 0 .32.02.62.1.8h-1.77c-.2-.25-.26-.65-.26-1.07 0-.96.33-2.3 2.32-10.22.07-.23.2-.72.2-1.12 0-.4-.27-.68-.66-.68-.94 0-4 3.97-4.7 6.36l-.72 2.46h-1.83l1.8-7.13c.15-.6.3-1.06.3-1.4 0-.2-.04-.3-.3-.3-.5 0-1.03.68-1.4 1.18l-.3-.24c.1-.16.5-.8 1.07-1.36.6-.58 1.46-1.1 1.97-1.1.74 0 .95.4.95.96 0 1-.54 2.6-.75 3.5M336.3 694.08l-.1.3c-1.58.15-2.23.57-3.12 1.35l-2.5 2.15 1.5 3.57c.36.82.65 1.38 1.25 1.38.7 0 1.22-1 1.74-1.7l.35.25c-.28.5-1.38 3-2.98 3-1.07 0-1.57-1.24-1.83-1.85l-1.46-3.45-1.32 1.15-1.05 3.9H325l3.46-13.82c.04-.13.07-.3.07-.46 0-.26-.24-.52-.75-.52-.2 0-.45 0-.64.05l-.07-.33 3.7-.58-2.64 10.7 3.92-3.5c.25-.24.5-.54.5-.85 0-.27-.4-.43-.62-.43h-.28l.1-.3h4.54"/><path d="M938 486.76h141.2V520H938z" fill="#fff" fill-opacity="0"/><path d="M953.73 496c0 6.5-4.74 16.02-9.85 16.02-3.15 0-4.55-1.96-4.55-5.94 0-5.77 3.85-16.58 10.15-16.58 2.42 0 4.25 2.1 4.25 6.5m-10.45 4.25h6.83c.5-2.32.84-4.15.84-5.5 0-2.43-.33-4.3-1.7-4.3-2.38 0-5.1 5.85-5.96 9.8m6.53 1.2h-6.85c-.53 1.65-.83 3.87-.83 5.46 0 2.3.5 4.16 1.92 4.16 2.23 0 4.22-4.35 5.24-7.63.24-.76.43-1.7.53-2M966.42 506.6l-.1.28c-1.57.16-2.23.58-3.12 1.36l-2.48 2.15 1.5 3.56c.35.82.63 1.38 1.24 1.38.7 0 1.22-1 1.74-1.7l.35.25c-.28.48-1.38 3-2.98 3-1.08 0-1.57-1.25-1.83-1.86l-1.48-3.45-1.3 1.14-1.06 3.9h-1.8l3.48-13.82c.05-.14.08-.3.08-.47 0-.26-.24-.5-.76-.5-.2 0-.44 0-.63.03l-.07-.33 3.7-.58-2.64 10.7 3.9-3.5c.27-.24.5-.54.5-.85 0-.28-.37-.44-.6-.44h-.3l.1-.3h4.56M981.68 511.47h-6.12v6.12H974v-6.13h-6.1v-1.55h6.1v-6.12h1.56v6.12h6.12v1.55M992.1 516.63h-6.48v-.35c1.73-.1 2.23-.6 2.23-1.88v-10.52c0-.8-.2-1.15-.7-1.15-.24 0-.64.1-1.06.28l-.64.24v-.33l4.2-2.12.2.07v14c0 1 .47 1.43 2.23 1.43v.35M1035.55 504.36h-19.87c-.33 0-.86.4-.86.73 0 .3.13.5.46.82.96.93 2 2.1 2.72 3.18l-.66.63c-2.16-2.5-4.68-4.97-7.86-6.3v-.33c3.18-1.36 5.7-3.8 7.9-6.34l.65.63c-.76 1.1-1.72 2.15-2.72 3.18-.28.3-.45.66-.45.93 0 .34.27.67.86.67h19.85v2.2M1062.77 496c0 6.5-4.74 16.02-9.85 16.02-3.15 0-4.54-1.96-4.54-5.94 0-5.77 3.85-16.58 10.15-16.58 2.42 0 4.24 2.1 4.24 6.5m-10.44 4.25h6.83c.5-2.32.83-4.15.83-5.5 0-2.43-.34-4.3-1.7-4.3-2.4 0-5.1 5.85-5.97 9.8m6.53 1.2H1052c-.54 1.65-.83 3.87-.83 5.46 0 2.3.5 4.16 1.92 4.16 2.2 0 4.2-4.35 5.23-7.63.23-.76.43-1.7.53-2M1075.47 506.6l-.1.3c-1.56.16-2.22.58-3.1 1.36l-2.5 2.15 1.5 3.58c.36.82.64 1.38 1.25 1.38.7 0 1.22-1 1.73-1.7l.35.25c-.28.5-1.38 3-2.97 3-1.08 0-1.57-1.23-1.83-1.84l-1.48-3.45-1.3 1.16-1.07 3.9h-1.78l3.47-13.82c.05-.14.07-.3.07-.47 0-.26-.22-.52-.74-.52-.2 0-.45 0-.63.05l-.07-.33 3.7-.58-2.65 10.68 3.93-3.5c.26-.23.5-.53.5-.84 0-.28-.4-.44-.62-.44h-.27l.1-.3h4.54"/><path d="M572.2 483.38h34.64v33.24H572.2z" fill="#fff" fill-opacity="0"/><path d="M588.82 500.45H588c-.3-1.26-.74-2.06-1.93-2.06h-3.48c-1.28 0-1.64.7-2.1 2.05h-.83c.23-.86.33-1.96.33-2.88 0-1-.13-2.86-.37-3.92h.83c.47 1.36.8 1.93 2.1 1.93h3.5c1.14 0 1.7-.8 1.93-1.93h.82c-.23.93-.36 1.7-.36 2.66 0 1 .13 3.12.36 4.15m6.2-3.15c0 6.83-4.48 11.44-10.84 11.44-6.44 0-10.85-4.64-10.85-11.54 0-6.73 4.38-11.34 10.85-11.34 6.5 0 10.84 4.87 10.84 11.44m-3.78-.2c0-3.78-1.13-6.9-3.02-8.5-1.2-.98-2.52-1.55-4.08-1.55-1.8 0-3.45.73-4.74 2.22-1.42 1.63-2.3 4.85-2.3 8 0 3.94.97 6.93 3 8.8 1.13 1 2.58 1.48 4.1 1.48 1.67 0 3.13-.5 4.3-1.6 1.8-1.75 2.74-4.87 2.74-8.85M602.78 503l-.23.9h-1.65l-1.82 7.5c-.03.07-.05.18-.05.25 0 .15.07.3.37.3 0 0 .54-.06 1.4-1.23l.32.25c-.57.73-1.74 2.5-3.12 2.5-.73 0-.92-.57-.92-1.2 0-.3.05-.62.12-.87l1.9-7.5h-1.8l.1-.7c1.77-.3 3.2-1.18 4.16-3.22h.3l-.72 3.02h1.64"/><path d="M430 918.52h428v49.8H430z" fill="#fff" fill-opacity="0"/><path d="M455.7 930.05l-.13.53h-.53c-2.5 0-3.25.9-3.55 2.1l-2.9 11.8c-.86 3.5-2.7 7.65-9.02 7.65-5.3 0-7.36-3.18-7.36-6.2 0-.26.4-2.85.47-3.15l2.5-10.94c.04-.07.04-.17.04-.24 0-.66-.7-1.02-2.5-1.02h-.58l.13-.53h10.87l-.14.53h-.56c-2.62 0-3.22.9-3.52 2.1l-2.98 11.93c-.13.5-.23 1.7-.23 2.26 0 1.8 1.56 3.7 4.77 3.7 3.7 0 5.62-2.67 6.48-6.25l2.85-11.63c.07-.24.14-.5.14-.87-.04-.76-.57-1.22-2.5-1.22h-.62l.13-.53h8.72M468.3 951.54h-6.13v6.12h-1.55v-6.12h-6.12V950h6.12v-6.13h1.55V950h6.12v1.54M482.86 957.04l-.4.53c-5.23-2.98-8.1-8.6-8.1-14.22 0-6.14 2.9-10.92 8.2-14.07l.3.53c-4.6 3.96-5.63 7.04-5.63 13.45 0 6.16 1 9.9 5.63 13.8M499.55 936.05c0 6.5-4.75 16.02-9.85 16.02-3.15 0-4.55-1.96-4.55-5.94 0-5.77 3.85-16.58 10.15-16.58 2.42 0 4.25 2.1 4.25 6.5m-10.45 4.24h6.83c.5-2.33.83-4.15.83-5.5 0-2.43-.33-4.3-1.7-4.3-2.38 0-5.1 5.85-5.96 9.8m6.53 1.2h-6.86c-.53 1.65-.83 3.87-.83 5.46 0 2.3.5 4.15 1.92 4.15 2.22 0 4.2-4.34 5.24-7.62.23-.77.43-1.7.53-2M500.87 929.8l.4-.52c5.08 3.05 8.1 8.6 8.1 14.23 0 6.15-2.93 10.86-8.2 14.07l-.3-.53c4.7-3.88 5.64-7 5.64-13.43 0-6.2-.82-10-5.63-13.8M541.3 941.1h-19.53v-2.2h19.53v2.2m0 6.62h-19.53v-2.2h19.53v2.2M556.06 944.4h15.7v-1.98h-15.7zM567.27 937.54h-6.47v-.35c1.73-.1 2.22-.6 2.22-1.9V924.8c0-.8-.2-1.14-.7-1.14-.23 0-.63.1-1.06.28l-.63.23v-.33l4.2-2.13.2.06v14c0 1 .48 1.43 2.24 1.43v.34M569.14 961.95l-1.26 3.2h-9.17v-.27l4.18-4.43c2.2-2.32 3.05-4.1 3.05-6.1 0-2.13-1.27-3.3-3.26-3.3-1.7 0-2.5.75-3.45 3.04l-.5-.12c.5-2.75 2-4.67 4.9-4.67 2.64 0 4.33 1.82 4.33 4.14 0 1.85-.92 3.6-3 5.8l-3.87 4.14h5.48c1 0 1.48-.26 2.25-1.57M585.87 957.04l-.4.53c-5.23-2.98-8.1-8.6-8.1-14.22 0-6.14 2.9-10.92 8.2-14.07l.3.53c-4.6 3.96-5.63 7.04-5.63 13.45 0 6.16 1 9.9 5.63 13.8M609 929.75l-9.56 22.35h-.66l-9.82-22.35H609m-2.1 1.36h-13.86l6.9 16.4M632.2 946.96l.57.6c-1.96 2-5.04 4.37-9.15 4.37-1.2 0-2.06-.16-2.92-.36-1.1-.23-2.13-.5-3.65-.5-1.46 0-3.45.63-4.94.63l.2-.8c1.1 0 2.03-.82 2.6-3.08l2.3-9.42c1.6-6.4 6.75-8.92 10.1-8.92 2.35 0 3.2 1.83 3.2 3.65 0 1.66-1.18 2.75-2.67 2.75-1 0-1.66-.8-1.66-1.7 0-1.58 1.66-1.35 1.66-2.1 0-.57-.23-1.27-1.93-1.27-6.13 0-4.3 12.1-8.78 17.85v.13c.82-.56 2.75-.73 3.78-.73 3.4 0 2.65 1.66 5.57 1.66 1.92 0 3.9-1.02 5.74-2.74M638.64 941.4h6.6c4.42 0 6.8 2.4 6.8 6.43 0 4.95-3.83 8.87-9.88 8.87h-7.18l.1-.38h.42c1.73 0 2.27-.65 2.46-1.45l2.86-11.66c.05-.17.1-.38.1-.55 0-.5-.43-.87-1.8-.87h-.6m5.07.57l-2.87 11.8c-.12.46-.12.58-.12.65 0 .96 1.42 1 2.24 1 4.5 0 6.35-4.3 6.35-7.6 0-2.7-.78-5.92-4.23-5.92-.47 0-1 .02-1.38.07M666.07 957.04l-.4.53c-5.24-2.98-8.1-8.6-8.1-14.22 0-6.14 2.9-10.92 8.2-14.07l.3.53c-4.6 3.96-5.64 7.04-5.64 13.45 0 6.16 1 9.9 5.64 13.8M682.75 936.05c0 6.5-4.74 16.02-9.85 16.02-3.15 0-4.54-1.96-4.54-5.94 0-5.77 3.84-16.58 10.14-16.58 2.42 0 4.25 2.1 4.25 6.5m-10.45 4.24h6.83c.5-2.33.83-4.15.83-5.5 0-2.43-.33-4.3-1.7-4.3-2.38 0-5.1 5.85-5.96 9.8m6.54 1.2h-6.87c-.53 1.65-.83 3.87-.83 5.46 0 2.3.5 4.15 1.92 4.15 2.23 0 4.22-4.34 5.24-7.62.24-.77.44-1.7.54-2M684.08 929.8l.4-.52c5.07 3.05 8.1 8.6 8.1 14.23 0 6.15-2.93 10.86-8.2 14.07l-.3-.53c4.7-3.88 5.63-7 5.63-13.43 0-6.2-.82-10-5.62-13.8M722.6 944.4h-8.64v8.66h-2.2v-8.65h-8.65v-2.18h8.67v-8.66h2.2v8.66h8.64v2.2M753.75 929.75l-9.55 22.35h-.66l-9.82-22.35h20.03m-2.1 1.36H737.8l6.9 16.4M777 946.96l.57.6c-1.96 2-5.04 4.37-9.16 4.37-1.18 0-2.04-.16-2.9-.36-1.1-.23-2.13-.5-3.65-.5-1.46 0-3.45.63-4.95.63l.2-.8c1.1 0 2.03-.82 2.6-3.08l2.3-9.42c1.6-6.4 6.74-8.92 10.1-8.92 2.35 0 3.2 1.83 3.2 3.65 0 1.66-1.18 2.75-2.68 2.75-1 0-1.65-.8-1.65-1.7 0-1.58 1.65-1.35 1.65-2.1 0-.57-.23-1.27-1.92-1.27-6.13 0-4.3 12.1-8.8 17.85v.13c.84-.56 2.77-.73 3.8-.73 3.4 0 2.65 1.66 5.57 1.66 1.92 0 3.9-1.02 5.73-2.74M783.44 943.3h6.6c4.42 0 6.8 2.4 6.8 6.44 0 4.95-3.83 8.86-9.88 8.86h-7.18l.1-.37h.42c1.74 0 2.27-.66 2.46-1.46l2.86-11.65c.05-.2.1-.4.1-.56 0-.52-.43-.87-1.8-.87h-.6m5.07.55l-2.87 11.82c-.12.44-.12.56-.12.63 0 .96 1.42 1 2.24 1 4.5 0 6.35-4.3 6.35-7.6 0-2.7-.78-5.92-4.23-5.92-.47 0-1 .02-1.38.07M798.7 949.22l-.55-.2c.43-2.04 1.47-6.6 1.77-7.57.26-.84.76-1.14 1.26-1.14.6 0 1.13.38 1.13 1.2 0 .17-.08.57-.16.77-.35.94-2.42 5.07-3.43 6.95M818.82 957.04l-.4.53c-5.23-2.98-8.1-8.6-8.1-14.22 0-6.14 2.9-10.92 8.2-14.07l.3.53c-4.6 3.96-5.63 7.04-5.63 13.45 0 6.16.98 9.9 5.62 13.8M835.54 936.05c0 6.5-4.74 16.02-9.85 16.02-3.16 0-4.55-1.96-4.55-5.94 0-5.77 3.84-16.58 10.14-16.58 2.4 0 4.24 2.1 4.24 6.5m-10.45 4.24h6.82c.5-2.33.83-4.15.83-5.5 0-2.43-.33-4.3-1.7-4.3-2.38 0-5.1 5.85-5.96 9.8m6.53 1.2h-6.87c-.53 1.65-.83 3.87-.83 5.46 0 2.3.5 4.15 1.92 4.15 2.23 0 4.22-4.34 5.24-7.62.23-.77.43-1.7.53-2M836.83 929.8l.4-.52c5.07 3.05 8.1 8.6 8.1 14.23 0 6.15-2.93 10.86-8.2 14.07l-.3-.53c4.7-3.88 5.64-7 5.64-13.43 0-6.2-.83-10-5.64-13.8M847.9 929.8l.4-.52c5.08 3.05 8.1 8.6 8.1 14.23 0 6.15-2.92 10.86-8.2 14.07l-.3-.53c4.72-3.88 5.65-7 5.65-13.43 0-6.2-.83-10-5.64-13.8"/><path d="M930 918.52h428v49.8H930z" fill="#fff" fill-opacity="0"/><path d="M955.7 930.05l-.13.53h-.53c-2.5 0-3.25.9-3.55 2.1l-2.9 11.8c-.86 3.5-2.7 7.65-9.02 7.65-5.3 0-7.36-3.18-7.36-6.2 0-.26.4-2.85.47-3.15l2.5-10.94c.04-.07.04-.17.04-.24 0-.66-.7-1.02-2.5-1.02h-.58l.13-.53h10.87l-.14.53h-.56c-2.62 0-3.22.9-3.52 2.1l-2.98 11.93c-.13.5-.23 1.7-.23 2.26 0 1.8 1.56 3.7 4.77 3.7 3.7 0 5.62-2.67 6.48-6.25l2.85-11.63c.07-.24.14-.5.14-.87-.04-.76-.57-1.22-2.5-1.22h-.62l.13-.53h8.72M967.94 951.54h-13.06V950h13.06v1.54M982.86 957.04l-.4.53c-5.23-2.98-8.1-8.6-8.1-14.22 0-6.14 2.9-10.92 8.2-14.07l.3.53c-4.6 3.96-5.63 7.04-5.63 13.45 0 6.16 1 9.9 5.63 13.8M999.55 936.05c0 6.5-4.75 16.02-9.85 16.02-3.15 0-4.55-1.96-4.55-5.94 0-5.77 3.85-16.58 10.15-16.58 2.42 0 4.25 2.1 4.25 6.5m-10.45 4.24h6.83c.5-2.33.83-4.15.83-5.5 0-2.43-.33-4.3-1.7-4.3-2.38 0-5.1 5.85-5.96 9.8m6.53 1.2h-6.86c-.53 1.65-.83 3.87-.83 5.46 0 2.3.5 4.15 1.92 4.15 2.22 0 4.2-4.34 5.24-7.62.23-.77.43-1.7.53-2M1000.87 929.8l.4-.52c5.08 3.05 8.1 8.6 8.1 14.23 0 6.15-2.93 10.86-8.2 14.07l-.3-.53c4.7-3.88 5.64-7 5.64-13.43 0-6.2-.82-10-5.63-13.8M1041.3 941.1h-19.53v-2.2h19.53v2.2m0 6.62h-19.53v-2.2h19.53v2.2M1056.06 944.4h15.7v-1.98h-15.7zM1067.27 937.54h-6.47v-.35c1.73-.1 2.22-.6 2.22-1.9V924.8c0-.8-.2-1.14-.7-1.14-.23 0-.63.1-1.06.28l-.63.23v-.33l4.2-2.13.2.06v14c0 1 .48 1.43 2.24 1.43v.34M1069.14 961.95l-1.26 3.2h-9.17v-.27l4.18-4.43c2.2-2.32 3.05-4.1 3.05-6.1 0-2.13-1.27-3.3-3.26-3.3-1.7 0-2.5.75-3.45 3.04l-.5-.12c.5-2.75 2-4.67 4.9-4.67 2.64 0 4.33 1.82 4.33 4.14 0 1.85-.92 3.6-3 5.8l-3.87 4.14h5.48c1 0 1.48-.26 2.25-1.57M1085.87 957.04l-.4.53c-5.23-2.98-8.1-8.6-8.1-14.22 0-6.14 2.9-10.92 8.2-14.07l.3.53c-4.6 3.96-5.63 7.04-5.63 13.45 0 6.16 1 9.9 5.63 13.8M1109 929.75l-9.56 22.35h-.66l-9.82-22.35H1109m-2.1 1.36h-13.86l6.9 16.4M1132.2 946.96l.57.6c-1.96 2-5.04 4.37-9.15 4.37-1.2 0-2.06-.16-2.92-.36-1.1-.23-2.13-.5-3.65-.5-1.46 0-3.45.63-4.94.63l.2-.8c1.1 0 2.03-.82 2.6-3.08l2.3-9.42c1.6-6.4 6.75-8.92 10.1-8.92 2.35 0 3.2 1.83 3.2 3.65 0 1.66-1.18 2.75-2.67 2.75-1 0-1.66-.8-1.66-1.7 0-1.58 1.66-1.35 1.66-2.1 0-.57-.23-1.27-1.93-1.27-6.13 0-4.3 12.1-8.78 17.85v.13c.82-.56 2.75-.73 3.78-.73 3.4 0 2.65 1.66 5.57 1.66 1.92 0 3.9-1.02 5.74-2.74M1138.64 941.4h6.6c4.42 0 6.8 2.4 6.8 6.43 0 4.95-3.83 8.87-9.88 8.87h-7.18l.1-.38h.42c1.73 0 2.27-.65 2.46-1.45l2.86-11.66c.05-.17.1-.38.1-.55 0-.5-.43-.87-1.8-.87h-.6m5.07.57l-2.87 11.8c-.12.46-.12.58-.12.65 0 .96 1.42 1 2.24 1 4.5 0 6.35-4.3 6.35-7.6 0-2.7-.78-5.92-4.23-5.92-.47 0-1 .02-1.38.07M1166.07 957.04l-.4.53c-5.24-2.98-8.1-8.6-8.1-14.22 0-6.14 2.9-10.92 8.2-14.07l.3.53c-4.6 3.96-5.64 7.04-5.64 13.45 0 6.16 1 9.9 5.64 13.8M1182.75 936.05c0 6.5-4.74 16.02-9.85 16.02-3.15 0-4.54-1.96-4.54-5.94 0-5.77 3.84-16.58 10.14-16.58 2.42 0 4.25 2.1 4.25 6.5m-10.45 4.24h6.83c.5-2.33.83-4.15.83-5.5 0-2.43-.33-4.3-1.7-4.3-2.38 0-5.1 5.85-5.96 9.8m6.54 1.2h-6.87c-.53 1.65-.83 3.87-.83 5.46 0 2.3.5 4.15 1.92 4.15 2.23 0 4.22-4.34 5.24-7.62.24-.77.44-1.7.54-2M1184.08 929.8l.4-.52c5.07 3.05 8.1 8.6 8.1 14.23 0 6.15-2.93 10.86-8.2 14.07l-.3-.53c4.7-3.88 5.63-7 5.63-13.43 0-6.2-.82-10-5.62-13.8M1222.12 944.4h-18.48v-2.18h18.48v2.2M1253.75 929.75l-9.55 22.35h-.66l-9.82-22.35h20.03m-2.1 1.36h-13.85l6.9 16.4M1277 946.96l.57.6c-1.96 2-5.04 4.37-9.16 4.37-1.18 0-2.04-.16-2.9-.36-1.1-.23-2.13-.5-3.65-.5-1.46 0-3.45.63-4.95.63l.2-.8c1.1 0 2.03-.82 2.6-3.08l2.3-9.42c1.6-6.4 6.74-8.92 10.1-8.92 2.35 0 3.2 1.83 3.2 3.65 0 1.66-1.18 2.75-2.68 2.75-1 0-1.65-.8-1.65-1.7 0-1.58 1.65-1.35 1.65-2.1 0-.57-.23-1.27-1.92-1.27-6.13 0-4.3 12.1-8.8 17.85v.13c.84-.56 2.77-.73 3.8-.73 3.4 0 2.65 1.66 5.57 1.66 1.92 0 3.9-1.02 5.73-2.74M1283.44 943.3h6.6c4.42 0 6.8 2.4 6.8 6.44 0 4.95-3.83 8.86-9.88 8.86h-7.18l.1-.37h.42c1.74 0 2.27-.66 2.46-1.46l2.86-11.65c.05-.2.1-.4.1-.56 0-.52-.43-.87-1.8-.87h-.6m5.07.55l-2.87 11.82c-.12.44-.12.56-.12.63 0 .96 1.42 1 2.24 1 4.5 0 6.35-4.3 6.35-7.6 0-2.7-.78-5.92-4.23-5.92-.47 0-1 .02-1.38.07M1298.7 949.22l-.55-.2c.43-2.04 1.47-6.6 1.77-7.57.26-.84.76-1.14 1.26-1.14.6 0 1.13.38 1.13 1.2 0 .17-.08.57-.16.77-.35.94-2.42 5.07-3.43 6.95M1318.82 957.04l-.4.53c-5.23-2.98-8.1-8.6-8.1-14.22 0-6.14 2.9-10.92 8.2-14.07l.3.53c-4.6 3.96-5.63 7.04-5.63 13.45 0 6.16.98 9.9 5.62 13.8M1335.54 936.05c0 6.5-4.74 16.02-9.85 16.02-3.16 0-4.55-1.96-4.55-5.94 0-5.77 3.84-16.58 10.14-16.58 2.4 0 4.24 2.1 4.24 6.5m-10.45 4.24h6.82c.5-2.33.83-4.15.83-5.5 0-2.43-.33-4.3-1.7-4.3-2.38 0-5.1 5.85-5.96 9.8m6.53 1.2h-6.87c-.53 1.65-.83 3.87-.83 5.46 0 2.3.5 4.15 1.92 4.15 2.23 0 4.22-4.34 5.24-7.62.23-.77.43-1.7.53-2M1336.83 929.8l.4-.52c5.07 3.05 8.1 8.6 8.1 14.23 0 6.15-2.93 10.86-8.2 14.07l-.3-.53c4.7-3.88 5.64-7 5.64-13.43 0-6.2-.83-10-5.64-13.8M1347.9 929.8l.4-.52c5.08 3.05 8.1 8.6 8.1 14.23 0 6.15-2.92 10.86-8.2 14.07l-.3-.53c4.72-3.88 5.65-7 5.65-13.43 0-6.2-.83-10-5.64-13.8"/><path d="M858 533.24h60v40h-60z" stroke="#000" stroke-width="2" fill="#fff" fill-opacity="0"/><path d="M869.55 553.9c0 1.1-.9 2-2 2s-2-.9-2-2 .9-2 2-2 2 .9 2 2zm7.42-.03c0 1.1-.9 2-2 2s-2-.9-2-2 .9-2 2-2 2 .9 2 2zm7.43-.03c0 1.1-.9 2-2 2s-2-.9-2-2 .9-2 2-2 2 .9 2 2zm7.42-.02c0 1.1-.9 2-2 2s-2-.9-2-2 .9-2 2-2 2 .9 2 2z" fill="#0c7cba"/><path d="M867.6 553.9h-2.05" stroke="#0c7cba" stroke-width="4" fill="none"/><path d="M906.1 553.76l-14.26 4.68-.04-9.27z" stroke="#0c7cba" stroke-width="4" fill="#0c7cba"/><path d="M858 586.5h60v40h-60z" stroke="#000" stroke-width="2" fill="#fff" fill-opacity="0"/><path d="M869.55 607.14c0 1.1-.9 2-2 2s-2-.9-2-2 .9-2 2-2 2 .9 2 2zm7.42-.03c0 1.12-.9 2-2 2s-2-.88-2-2c0-1.1.9-2 2-2s2 .9 2 2zm7.43 0c0 1.1-.9 2-2 2s-2-.9-2-2c0-1.12.9-2 2-2s2 .88 2 2zm7.42-.04c0 1.1-.9 2-2 2s-2-.9-2-2 .9-2 2-2 2 .9 2 2z" fill="#7769e0"/><path d="M867.6 607.14h-2.05" stroke="#7769e0" stroke-width="4" fill="none"/><path d="M906.1 607l-14.26 4.7-.04-9.28z" stroke="#7769e0" stroke-width="4" fill="#7769e0"/><path d="M858 639.73h60v40h-60z" stroke="#000" stroke-width="2" fill="#fff" fill-opacity="0"/><path d="M869.55 660.38c0 1.1-.9 2-2 2s-2-.9-2-2 .9-2 2-2 2 .9 2 2zm7.42-.02c0 1.1-.9 2-2 2s-2-.9-2-2 .9-2 2-2 2 .9 2 2zm7.43-.03c0 1.1-.9 2-2 2s-2-.9-2-2 .9-2 2-2 2 .9 2 2zm7.42-.03c0 1.1-.9 2-2 2s-2-.9-2-2 .9-2 2-2 2 .9 2 2z" fill="#c92d39"/><path d="M867.6 660.38h-2.05" stroke="#c92d39" stroke-width="4" fill="none"/><path d="M906.1 660.25l-14.26 4.68-.04-9.27z" stroke="#c92d39" stroke-width="4" fill="#c92d39"/><path d="M858 693.24h60v40h-60z" stroke="#000" stroke-width="2" fill="#fff" fill-opacity="0"/><path d="M869.55 713.9c0 1.1-.9 2-2 2s-2-.9-2-2 .9-2 2-2 2 .9 2 2zm7.42-.03c0 1.1-.9 2-2 2s-2-.9-2-2 .9-2 2-2 2 .9 2 2zm7.43-.03c0 1.1-.9 2-2 2s-2-.9-2-2 .9-2 2-2 2 .9 2 2zm7.42-.02c0 1.1-.9 2-2 2s-2-.9-2-2 .9-2 2-2 2 .9 2 2z" fill="#19967d"/><path d="M867.6 713.9h-2.05" stroke="#19967d" stroke-width="4" fill="none"/><path d="M906.1 713.76l-14.26 4.68-.04-9.27z" stroke="#19967d" stroke-width="4" fill="#19967d"/><path d="M858 480h60v40h-60z" stroke="#000" stroke-width="2" fill="#fff" fill-opacity="0"/><path d="M867.55 500.65l22.27-.08M867.6 500.65h-2.05" stroke="#7769e0" stroke-width="4" fill="none"/><path d="M906.1 500.5l-14.26 4.7-.04-9.27z" stroke="#7769e0" stroke-width="4" fill="#7769e0"/><path d="M858 746.62h60v40h-60z" stroke="#000" stroke-width="2" fill="#fff" fill-opacity="0"/><path d="M867.55 767.27l22.27-.08M867.6 767.27h-2.05" stroke="#c92d39" stroke-width="4" fill="none"/><path d="M906.1 767.14l-14.26 4.68-.04-9.27z" stroke="#c92d39" stroke-width="4" fill="#c92d39"/><path d="M938 537.1h220v29.2H938z" fill="#fff" fill-opacity="0"/><path d="M952 539.52l-1.62 6.64c3 0 5.68 1.1 5.68 4.52 0 2.27-.78 4.28-2.33 5.94-1.74 1.9-4.04 2.68-6.58 2.68l-1.4 5h-2.35l1.33-5c-3.14 0-5.56-1.64-5.56-4.98 0-2.22.9-4.14 2.45-5.7 1.63-1.67 3.64-2.46 5.97-2.46h.45c.56-2.2 1.08-4.42 1.55-6.64h2.4m-1.82 7.5l-2.82 11.4c3.52 0 6.23-4.4 6.23-7.6 0-2.3-.94-3.84-3.42-3.8M945 558.4l2.88-11.4c-3.8 0-6.26 3.9-6.26 7.35 0 1.84 1.34 4.05 3.38 4.05M965.64 563.66l-.35.47c-4.6-2.62-7.1-7.54-7.1-12.5 0-5.38 2.52-9.57 7.18-12.34l.26.46c-4.04 3.46-4.95 6.17-4.95 11.8 0 5.4.87 8.7 4.94 12.1M980.32 545.23c0 5.7-4.16 14.07-8.65 14.07-2.77 0-4-1.72-4-5.22 0-5.06 3.4-14.56 8.92-14.56 2.12 0 3.72 1.84 3.72 5.7m-9.17 3.74h6c.43-2.04.72-3.64.72-4.84 0-2.12-.3-3.75-1.48-3.75-2.1 0-4.5 5.12-5.25 8.6m5.73 1.04h-6.02c-.47 1.46-.73 3.4-.73 4.8 0 2.02.43 3.65 1.7 3.65 1.94 0 3.7-3.8 4.6-6.7.2-.67.37-1.48.45-1.74M981.46 539.76l.35-.47c4.46 2.67 7.1 7.53 7.1 12.48 0 5.4-2.55 9.52-7.18 12.35l-.26-.47c4.13-3.4 4.95-6.14 4.95-11.8 0-5.44-.72-8.78-4.94-12.1M1016.95 549.66H999.8v-1.93h17.15v1.93m0 5.82H999.8v-1.92h17.15v1.92M1040.28 545.23c0 5.7-4.16 14.07-8.65 14.07-2.77 0-4-1.72-4-5.22 0-5.06 3.4-14.56 8.92-14.56 2.13 0 3.73 1.84 3.73 5.7m-9.17 3.74h6c.44-2.04.73-3.64.73-4.84 0-2.12-.3-3.75-1.48-3.75-2.1 0-4.5 5.12-5.24 8.6m5.74 1.04h-6.02c-.47 1.46-.73 3.4-.73 4.8 0 2.02.42 3.65 1.68 3.65 1.95 0 3.7-3.8 4.6-6.7.2-.67.38-1.48.46-1.74M1065.12 552.57h-16.22v-1.92h16.22v1.92M1078.52 551.67h.05l1.66-2.13c1.58-2 3.03-3.4 4.75-3.4 1.14 0 1.75.58 1.75 1.57 0 .65-.26 1.52-.44 2.28l-2.2 9.1c-.43 1.85-.66 3.3-.66 4.2 0 .4.03.8.14 1.02h-2.2c-.27-.32-.33-.8-.33-1.34 0-1.2.4-2.85 2.88-12.7.1-.28.24-.9.24-1.4 0-.48-.32-.83-.82-.83-1.16 0-4.95 4.92-5.82 7.9l-.9 3.05h-2.28l2.24-8.86c.17-.73.37-1.3.37-1.72 0-.26-.06-.37-.38-.37-.65 0-1.3.84-1.75 1.45l-.38-.3c.14-.2.64-.98 1.34-1.68.74-.73 1.8-1.37 2.45-1.37.94 0 1.2.5 1.2 1.2 0 1.22-.67 3.23-.93 4.34M1109.47 539.96l-.1.47h-.48c-2.2 0-2.86.78-3.13 1.83l-2.53 10.37c-.76 3.08-2.4 6.72-7.92 6.72-4.66 0-6.47-2.8-6.47-5.44 0-.22.35-2.5.4-2.76l2.23-9.6c.02-.07.02-.15.02-.2 0-.6-.6-.9-2.18-.9h-.52l.1-.48h9.56l-.1.47h-.5c-2.3 0-2.83.78-3.1 1.83l-2.62 10.48c-.1.44-.2 1.5-.2 1.98 0 1.58 1.37 3.27 4.2 3.27 3.23 0 4.92-2.37 5.67-5.52l2.52-10.22c.06-.2.1-.44.1-.76-.02-.67-.48-1.07-2.17-1.07h-.55l.1-.47h7.67M1120.52 558.83h-5.37v5.37h-1.36v-5.37h-5.38v-1.36h5.37v-5.37h1.35v5.37h5.37v1.36M1133.32 563.66l-.35.47c-4.6-2.62-7.1-7.54-7.1-12.5 0-5.38 2.53-9.57 7.2-12.34l.25.46c-4.05 3.46-4.95 6.17-4.95 11.8 0 5.4.87 8.7 4.95 12.1M1147.97 545.23c0 5.7-4.16 14.07-8.65 14.07-2.77 0-4-1.72-4-5.22 0-5.06 3.4-14.56 8.92-14.56 2.13 0 3.73 1.84 3.73 5.7m-9.17 3.74h6c.43-2.04.72-3.64.72-4.84 0-2.12-.3-3.75-1.48-3.75-2.1 0-4.5 5.12-5.24 8.6m5.73 1.04h-6.02c-.46 1.46-.72 3.4-.72 4.8 0 2.02.43 3.65 1.7 3.65 1.94 0 3.68-3.8 4.6-6.7.2-.67.37-1.48.45-1.74M1149.13 539.76l.35-.47c4.46 2.67 7.1 7.53 7.1 12.48 0 5.4-2.55 9.52-7.18 12.35l-.27-.47c4.14-3.4 4.96-6.14 4.96-11.8 0-5.44-.74-8.78-4.97-12.1"/><path d="M538 496.12h26.5v1H538z" stroke="#7769e0" fill="none"/><path d="M571.9 740h35.25v37.38H571.9z" fill="#fff" fill-opacity="0"/><path d="M588.5 759.14h-.83c-.3-1.26-.73-2.05-1.92-2.05h-3.48c-1.26 0-1.63.68-2.1 2.04h-.82c.23-.86.33-1.95.33-2.88 0-1-.13-2.85-.36-3.92h.83c.46 1.36.8 1.93 2.1 1.93h3.5c1.13 0 1.7-.8 1.92-1.93h.83c-.23.93-.36 1.7-.36 2.66 0 1 .13 3.1.36 4.14m6.2-3.15c0 6.82-4.47 11.43-10.84 11.43-6.43 0-10.84-4.64-10.84-11.54 0-6.74 4.37-11.35 10.84-11.35 6.5 0 10.85 4.88 10.85 11.44m-3.78-.2c0-3.8-1.12-6.9-3-8.5-1.2-1-2.53-1.56-4.1-1.56-1.78 0-3.44.73-4.74 2.23-1.42 1.62-2.28 4.84-2.28 8 0 3.94.96 6.92 2.98 8.78 1.13 1.03 2.6 1.5 4.1 1.5 1.67 0 3.13-.5 4.3-1.6 1.82-1.76 2.74-4.88 2.74-8.86M597.66 755.53l-.8-.28c.6-2.9 2.1-9.34 2.5-10.7.38-1.2 1.1-1.6 1.8-1.6.83 0 1.58.5 1.58 1.65 0 .26-.1.82-.23 1.1-.48 1.34-3.4 7.18-4.84 9.83M602.46 764.58l-.23.9h-1.64l-1.84 7.5c-.02.06-.05.18-.05.25 0 .14.08.28.4.28 0 0 .53-.04 1.4-1.2l.3.25c-.56.73-1.74 2.5-3.12 2.5-.73 0-.9-.58-.9-1.2 0-.32.03-.62.1-.88l1.9-7.5h-1.8l.1-.68c1.77-.34 3.2-1.2 4.16-3.25h.3l-.72 3.03h1.64"/><path d="M538 755.3h26.5v1H538z" stroke="#c92d39" fill="none"/><path d="M938 586.2h540v38.54H938z" fill="#fff" fill-opacity="0"/><path d="M950.87 607.42h-.64c-.23-.98-.57-1.6-1.5-1.6h-2.7c-.96 0-1.25.54-1.6 1.6h-.65c.18-.67.26-1.52.26-2.24 0-.77-.1-2.2-.28-3.03h.64c.36 1.06.62 1.5 1.62 1.5h2.72c.87 0 1.3-.62 1.5-1.5h.63c-.18.72-.28 1.3-.28 2.06 0 .78.1 2.42.27 3.22m4.8-2.44c0 5.3-3.47 8.85-8.4 8.85-4.98 0-8.4-3.6-8.4-8.93 0-5.2 3.4-8.78 8.4-8.78 5.04 0 8.4 3.77 8.4 8.86m-2.93-.16c0-2.92-.87-5.34-2.33-6.57-.92-.77-1.94-1.2-3.15-1.2-1.4 0-2.67.56-3.67 1.72-1.1 1.25-1.77 3.74-1.77 6.18 0 3.06.75 5.37 2.32 6.8.87.8 2 1.16 3.18 1.16 1.28 0 2.4-.38 3.3-1.22 1.42-1.36 2.14-3.78 2.14-6.86M961.67 609.4l-.18.68h-1.28l-1.4 5.8c-.03.06-.05.15-.05.2 0 .12.05.23.3.23 0 0 .4-.03 1.08-.94l.24.2c-.45.56-1.36 1.94-2.43 1.94-.56 0-.7-.45-.7-.94 0-.24.03-.47.08-.67l1.47-5.82h-1.4l.1-.53c1.36-.25 2.47-.92 3.2-2.5h.25l-.57 2.34h1.27M993.92 607.83h-15.38c-.26 0-.67.3-.67.56 0 .22.1.38.36.63.75.72 1.54 1.62 2.1 2.47l-.5.5c-1.67-1.94-3.62-3.86-6.1-4.9v-.25c2.48-1.05 4.43-2.95 6.12-4.9l.5.5c-.58.83-1.32 1.65-2.1 2.45-.22.23-.35.5-.35.72 0 .26.2.5.67.5h15.35v1.7M1015.17 596.33l-1.4 5.85c2.64 0 5 .97 5 3.98 0 2-.7 3.77-2.06 5.24-1.53 1.66-3.55 2.36-5.8 2.36l-1.22 4.4h-2.08l1.18-4.4c-2.77 0-4.9-1.44-4.9-4.4 0-1.94.8-3.64 2.15-5.02 1.44-1.47 3.2-2.16 5.27-2.16h.4c.5-1.95.96-3.9 1.37-5.85h2.1m-1.6 6.6l-2.48 10.06c3.1 0 5.5-3.9 5.5-6.7 0-2.04-.84-3.4-3.02-3.38M1009 613l2.55-10.08c-3.33 0-5.52 3.44-5.52 6.5 0 1.62 1.2 3.57 2.98 3.57M1027.2 617.6l-.3.42c-4.05-2.3-6.26-6.65-6.26-11 0-4.76 2.23-8.46 6.34-10.9l.23.4c-3.56 3.07-4.35 5.45-4.35 10.4 0 4.78.77 7.68 4.36 10.7M1040.84 607.42h-.64c-.23-.98-.56-1.6-1.5-1.6h-2.68c-.98 0-1.26.54-1.62 1.6h-.64c.18-.67.26-1.52.26-2.24 0-.77-.1-2.2-.3-3.03h.65c.36 1.06.62 1.5 1.62 1.5h2.7c.9 0 1.32-.62 1.5-1.5h.64c-.18.72-.28 1.3-.28 2.06 0 .78.1 2.42.28 3.22m4.8-2.44c0 5.3-3.46 8.85-8.4 8.85-4.97 0-8.38-3.6-8.38-8.93 0-5.2 3.38-8.78 8.4-8.78 5.02 0 8.38 3.77 8.38 8.86m-2.92-.16c0-2.92-.88-5.34-2.34-6.57-.92-.77-1.95-1.2-3.16-1.2-1.38 0-2.67.56-3.67 1.72-1.1 1.25-1.77 3.74-1.77 6.18 0 3.06.75 5.37 2.3 6.8.9.8 2 1.16 3.2 1.16 1.28 0 2.4-.38 3.3-1.22 1.42-1.36 2.14-3.78 2.14-6.86M1049.66 612.77h.03l1.03-1.33c.98-1.25 1.9-2.12 2.96-2.12.7 0 1.07.36 1.07.98 0 .4-.16.95-.27 1.42l-1.36 5.68c-.27 1.14-.42 2.05-.42 2.6 0 .27.02.5.1.65h-1.38c-.17-.2-.2-.5-.2-.84 0-.73.25-1.77 1.8-7.9.05-.18.14-.56.14-.87 0-.3-.2-.53-.5-.53-.74 0-3.1 3.07-3.64 4.92l-.56 1.9h-1.42l1.4-5.5c.1-.47.23-.83.23-1.08 0-.17-.04-.24-.24-.24-.4 0-.8.53-1.1.9l-.23-.17c.1-.13.4-.62.84-1.06.45-.45 1.12-.85 1.52-.85.57 0 .74.3.74.75 0 .76-.42 2-.58 2.7M1064.43 609.56l-.07.22c-1.22.12-1.73.45-2.42 1.05l-1.92 1.67 1.16 2.76c.27.63.5 1.07.96 1.07.55 0 .95-.78 1.35-1.33l.26.2c-.22.38-1.07 2.32-2.3 2.32-.84 0-1.22-.96-1.42-1.43l-1.15-2.68-1.02.9-.82 3h-1.38l2.7-10.68c.02-.1.04-.24.04-.37 0-.2-.18-.4-.58-.4-.16 0-.34 0-.5.04l-.04-.24 2.87-.46-2.06 8.28 3.05-2.7c.2-.2.38-.42.38-.66 0-.22-.3-.34-.48-.34h-.2l.06-.22h3.53M1068.03 596.53l.3-.4c3.93 2.35 6.27 6.64 6.27 11 0 4.75-2.26 8.4-6.34 10.9l-.23-.42c3.64-3 4.36-5.4 4.36-10.4 0-4.8-.65-7.74-4.37-10.67M1097.5 607.83h-14.3v-1.7h14.3v1.7M1112.67 617.6l-.3.42c-4.06-2.3-6.27-6.65-6.27-11 0-4.76 2.23-8.46 6.34-10.9l.23.4c-3.57 3.07-4.36 5.45-4.36 10.4 0 4.78.78 7.68 4.37 10.7M1120.68 602.23l-.26.98h-1.8l-2 8.22c-.02.08-.05.2-.05.28 0 .16.08.3.4.3 0 0 .6-.04 1.55-1.32l.34.28c-.62.8-1.9 2.75-3.42 2.75-.8 0-1-.64-1-1.33 0-.33.05-.67.13-.95l2.08-8.2h-1.98l.13-.76c1.93-.36 3.5-1.3 4.54-3.54h.34l-.8 3.3h1.8M1143.12 607.83h-14.3v-1.7h14.3v1.7M1154.92 607.03h.05l1.47-1.87c1.38-1.77 2.67-3 4.18-3 1 0 1.54.5 1.54 1.38 0 .56-.23 1.33-.38 2l-1.93 8.04c-.38 1.6-.6 2.9-.6 3.7 0 .35.04.7.14.9h-1.96c-.23-.3-.28-.73-.28-1.2 0-1.04.36-2.5 2.54-11.18.08-.26.2-.8.2-1.23 0-.44-.28-.75-.72-.75-1.02 0-4.36 4.34-5.13 6.96l-.8 2.7h-2l1.98-7.8c.15-.65.33-1.16.33-1.52 0-.23-.05-.34-.33-.34-.57 0-1.13.75-1.54 1.3l-.34-.27c.12-.18.56-.87 1.18-1.5.64-.63 1.6-1.2 2.15-1.2.8 0 1.05.44 1.05 1.06 0 1.08-.6 2.86-.83 3.83M1175.82 602.5l-.1.3c-1.72.18-2.44.64-3.42 1.48l-2.72 2.37 1.64 3.9c.4.9.7 1.5 1.36 1.5.77 0 1.34-1.1 1.9-1.86l.4.27c-.32.54-1.53 3.3-3.27 3.3-1.17 0-1.7-1.37-2-2.04l-1.6-3.77-1.45 1.25-1.15 4.27h-1.95l3.8-15.12c.05-.15.07-.33.07-.5 0-.3-.25-.57-.82-.57-.23 0-.5 0-.7.05l-.07-.36 4.06-.64-2.9 11.7 4.27-3.82c.3-.25.54-.58.54-.92 0-.3-.4-.48-.66-.48h-.3l.1-.3h4.98M1176.97 596.53l.3-.4c3.94 2.35 6.28 6.64 6.28 11 0 4.75-2.26 8.4-6.34 10.9l-.23-.42c3.65-3 4.37-5.4 4.37-10.4 0-4.8-.64-7.74-4.37-10.67M1204.67 596.7l-.1.42h-.4c-1.94 0-2.53.7-2.76 1.62l-2.22 9.14c-.67 2.72-2.1 5.93-6.98 5.93-4.1 0-5.7-2.46-5.7-4.8 0-.2.3-2.2.36-2.43l1.95-8.47c.03-.05.03-.13.03-.18 0-.52-.53-.8-1.92-.8h-.45l.1-.4h8.42l-.1.4h-.44c-2.03 0-2.5.7-2.72 1.62l-2.3 9.24c-.1.4-.18 1.3-.18 1.75 0 1.38 1.2 2.87 3.7 2.87 2.85 0 4.33-2.08 5-4.85l2.2-9c.06-.2.1-.4.1-.68 0-.6-.42-.95-1.9-.95h-.5l.1-.4h6.75M1214.14 613.35h-10.1v-1.2h10.1v1.2M1225.72 617.6l-.3.42c-4.06-2.3-6.27-6.65-6.27-11 0-4.76 2.23-8.46 6.34-10.9l.22.4c-3.57 3.07-4.36 5.45-4.36 10.4 0 4.78.77 7.68 4.36 10.7M1239.33 607.42h-.64c-.24-.98-.58-1.6-1.5-1.6h-2.7c-.97 0-1.26.54-1.62 1.6h-.64c.18-.67.26-1.52.26-2.24 0-.77-.1-2.2-.28-3.03h.64c.36 1.06.62 1.5 1.62 1.5h2.72c.87 0 1.3-.62 1.5-1.5h.63c-.18.72-.28 1.3-.28 2.06 0 .78.1 2.42.28 3.22m4.8-2.44c0 5.3-3.47 8.85-8.4 8.85-4.98 0-8.4-3.6-8.4-8.93 0-5.2 3.4-8.78 8.4-8.78 5.04 0 8.4 3.77 8.4 8.86m-2.93-.16c0-2.92-.87-5.34-2.33-6.57-.93-.77-1.95-1.2-3.16-1.2-1.38 0-2.66.56-3.66 1.72-1.1 1.25-1.77 3.74-1.77 6.18 0 3.06.74 5.37 2.3 6.8.88.8 2 1.16 3.2 1.16 1.27 0 2.4-.38 3.3-1.22 1.4-1.36 2.13-3.78 2.13-6.86M1248.14 612.77h.04l1.03-1.33c1-1.25 1.9-2.12 2.97-2.12.7 0 1.1.36 1.1.98 0 .4-.17.95-.28 1.42l-1.37 5.68c-.28 1.14-.42 2.05-.42 2.6 0 .27.03.5.1.65h-1.38c-.16-.2-.2-.5-.2-.84 0-.73.25-1.77 1.8-7.9.05-.18.14-.56.14-.87 0-.3-.2-.53-.5-.53-.73 0-3.1 3.07-3.64 4.92l-.56 1.9h-1.4l1.38-5.5c.1-.47.24-.83.24-1.08 0-.17-.04-.24-.24-.24-.4 0-.8.53-1.1.9l-.22-.17c.1-.13.4-.62.83-1.06.46-.45 1.13-.85 1.53-.85.58 0 .74.3.74.75 0 .76-.42 2-.58 2.7M1262.9 609.56l-.06.22c-1.2.12-1.72.45-2.4 1.05l-1.94 1.67 1.17 2.76c.27.63.5 1.07.96 1.07.54 0 .94-.78 1.34-1.33l.27.2c-.2.38-1.07 2.32-2.3 2.32-.84 0-1.22-.96-1.42-1.43l-1.14-2.68-1.02.9-.8 3h-1.4l2.7-10.68c.03-.1.05-.24.05-.37 0-.2-.17-.4-.57-.4-.17 0-.35 0-.5.04l-.05-.24 2.87-.46-2.05 8.28 3.03-2.7c.2-.2.38-.42.38-.66 0-.22-.28-.34-.46-.34h-.22l.07-.22h3.5M1266.54 596.53l.3-.4c3.93 2.35 6.27 6.64 6.27 11 0 4.75-2.25 8.4-6.33 10.9l-.23-.42c3.64-3 4.36-5.4 4.36-10.4 0-4.8-.64-7.74-4.36-10.67M1296.4 607.83h-6.7v6.7h-1.7v-6.7h-6.7v-1.7h6.7v-6.7h1.7v6.7h6.7v1.7M1328.07 589.83l-12.27 31.63h-.82l-5.2-13.6c-.42-1.16-.94-1.52-1.58-1.52-.43 0-1.1.28-1.67.8l-.3-.52 4-3.18h.5l5.22 13.76h.1l10.64-27.37h1.37"/><path d="M1327.17 591.35h118.55v-1.54h-118.55zM1339.34 609.96l-1.4 3.5h-10.02v-.3l4.57-4.85c2.4-2.53 3.32-4.48 3.32-6.66 0-2.34-1.38-3.62-3.56-3.62-1.85 0-2.75.82-3.78 3.34l-.54-.13c.54-3 2.18-5.1 5.34-5.1 2.9 0 4.75 1.97 4.75 4.5 0 2.04-1 3.96-3.28 6.38l-4.24 4.52h6.02c1.07 0 1.6-.28 2.46-1.72M1347.8 617.6l-.3.42c-4.05-2.3-6.26-6.65-6.26-11 0-4.76 2.23-8.46 6.34-10.9l.23.4c-3.56 3.07-4.35 5.45-4.35 10.4 0 4.78.77 7.68 4.36 10.7M1355.85 602.23l-.26.98h-1.8l-2 8.22c-.03.08-.06.2-.06.28 0 .16.08.3.4.3 0 0 .6-.04 1.55-1.32l.32.28c-.6.8-1.9 2.75-3.4 2.75-.8 0-1-.64-1-1.33 0-.33.04-.67.12-.95l2.08-8.2h-1.98l.13-.76c1.92-.36 3.5-1.3 4.54-3.54h.35l-.8 3.3h1.8M1378.26 607.83h-14.3v-1.7h14.3v1.7M1390.07 607.03h.05l1.46-1.87c1.4-1.77 2.67-3 4.18-3 1 0 1.54.5 1.54 1.38 0 .56-.23 1.33-.38 2l-1.93 8.04c-.4 1.6-.6 2.9-.6 3.7 0 .35.03.7.13.9h-1.95c-.23-.3-.28-.73-.28-1.2 0-1.04.36-2.5 2.54-11.18.08-.26.2-.8.2-1.23 0-.44-.28-.75-.7-.75-1.04 0-4.38 4.34-5.15 6.96l-.8 2.7h-2l1.97-7.8c.16-.65.34-1.16.34-1.52 0-.23-.05-.34-.33-.34-.56 0-1.13.75-1.54 1.3l-.33-.27c.13-.18.56-.87 1.18-1.5.64-.63 1.6-1.2 2.15-1.2.83 0 1.06.44 1.06 1.06 0 1.08-.6 2.86-.83 3.83M1410.96 602.5l-.1.3c-1.72.18-2.44.64-3.42 1.48l-2.72 2.37 1.65 3.9c.38.9.7 1.5 1.36 1.5.77 0 1.33-1.1 1.9-1.86l.38.27c-.3.54-1.5 3.3-3.25 3.3-1.18 0-1.72-1.37-2-2.04l-1.62-3.77-1.44 1.25-1.16 4.27h-1.95l3.8-15.12c.04-.15.06-.33.06-.5 0-.3-.25-.57-.82-.57-.23 0-.48 0-.7.05l-.07-.36 4.06-.64-2.9 11.7 4.28-3.82c.3-.25.55-.58.55-.92 0-.3-.4-.48-.66-.48h-.32l.1-.3h4.98M1412.12 596.53l.3-.4c3.93 2.35 6.27 6.64 6.27 11 0 4.75-2.27 8.4-6.35 10.9l-.23-.42c3.64-3 4.36-5.4 4.36-10.4 0-4.8-.64-7.74-4.36-10.67M1433.96 602.5l-.5 1.86H1429c.57 1.62 2.16 1.75 2.16 3.67 0 2.88-2.85 5.73-6.57 5.73-2.65 0-3.65-2.26-3.65-4.1 0-4.37 3.33-7.17 6.67-7.17h6.34m-6.7 1.86h-.05c-1.7.16-4.17 2.36-4.17 6 0 .83.28 2.63 1.67 2.63 2.54 0 4.4-3.25 4.4-5.33 0-1.64-1-2.8-1.84-3.3M1442.64 603.58l-.98 2.5h-7.1v-.23l3.24-3.43c1.7-1.8 2.36-3.17 2.36-4.72 0-1.65-.98-2.56-2.53-2.56-1.3 0-1.94.58-2.66 2.36l-.4-.1c.4-2.1 1.56-3.6 3.8-3.6 2.04 0 3.35 1.4 3.35 3.2 0 1.43-.7 2.8-2.33 4.5l-3 3.2h4.25c.76 0 1.14-.2 1.74-1.23M1466.33 596.7l-14.53 15.8h5.6c2.4 0 4.67-.28 5.57-3.6h.4l-1.17 4.57h-14.9l14.7-15.8h-5.2c-2.46 0-4.74.15-5.72 3.1h-.43l1.23-4.06h14.45M1475.13 609.57l-.07.22c-1.22.12-1.73.44-2.42 1.04l-1.92 1.67 1.16 2.77c.27.64.5 1.07.96 1.07.55 0 .95-.78 1.34-1.32l.28.2c-.22.38-1.07 2.32-2.3 2.32-.84 0-1.22-.96-1.42-1.43l-1.15-2.66-1.02.9-.82 3h-1.38l2.7-10.7c.02-.1.04-.23.04-.35 0-.2-.18-.4-.58-.4-.16 0-.34 0-.5.02l-.04-.25 2.86-.45-2.05 8.27 3.04-2.7c.2-.2.38-.43.38-.66 0-.22-.3-.35-.47-.35h-.22l.08-.23h3.53"/><path d="M938 746.62h141.2v41.52H938z" fill="#fff" fill-opacity="0"/><path d="M953.73 757.94c0 6.5-4.74 16.02-9.85 16.02-3.15 0-4.55-1.96-4.55-5.94 0-5.77 3.85-16.58 10.15-16.58 2.42 0 4.25 2.1 4.25 6.5m-10.45 4.24h6.83c.5-2.32.84-4.14.84-5.5 0-2.42-.33-4.28-1.7-4.28-2.38 0-5.1 5.84-5.96 9.78m6.53 1.2h-6.85c-.53 1.66-.83 3.88-.83 5.47 0 2.3.5 4.14 1.92 4.14 2.23 0 4.22-4.35 5.24-7.63.24-.77.43-1.7.53-2M955.9 762.15l-.8-.28c.6-2.9 2.1-9.33 2.5-10.7.38-1.2 1.1-1.6 1.8-1.6.84 0 1.6.5 1.6 1.65 0 .26-.13.82-.25 1.1-.5 1.34-3.42 7.18-4.85 9.83M966.42 774l-.1.28c-1.57.17-2.23.6-3.12 1.36l-2.48 2.16 1.5 3.57c.35.82.63 1.38 1.24 1.38.7 0 1.22-1 1.74-1.7l.35.25c-.28.5-1.38 3-2.98 3-1.08 0-1.57-1.25-1.83-1.86l-1.48-3.44-1.3 1.15-1.06 3.9h-1.8l3.48-13.82c.05-.14.08-.3.08-.47 0-.26-.24-.52-.76-.52-.2 0-.44 0-.63.05l-.07-.34 3.7-.58-2.64 10.7 3.9-3.5c.27-.24.5-.55.5-.85 0-.28-.37-.45-.6-.45h-.3l.1-.28h4.56M981.68 778.88h-6.12V785H974v-6.12h-6.1v-1.55h6.1v-6.12h1.56v6.13h6.12v1.55M992.1 784.04h-6.48v-.35c1.73-.1 2.23-.6 2.23-1.9V771.3c0-.8-.2-1.15-.7-1.15-.24 0-.64.12-1.06.3l-.64.22v-.33l4.2-2.13.2.06v14c0 1 .47 1.43 2.23 1.43v.34M1035.55 766.3h-19.87c-.33 0-.86.4-.86.73 0 .3.13.5.46.82.96.93 2 2.1 2.72 3.2l-.66.62c-2.16-2.5-4.68-4.98-7.86-6.3v-.33c3.18-1.36 5.7-3.82 7.9-6.34l.65.63c-.76 1.1-1.72 2.16-2.72 3.18-.28.3-.45.68-.45.94 0 .33.27.67.86.67h19.85v2.2M1062.77 757.94c0 6.5-4.74 16.02-9.85 16.02-3.15 0-4.54-1.96-4.54-5.94 0-5.77 3.85-16.58 10.15-16.58 2.42 0 4.24 2.1 4.24 6.5m-10.44 4.24h6.83c.5-2.32.83-4.14.83-5.5 0-2.42-.34-4.28-1.7-4.28-2.4 0-5.1 5.84-5.97 9.78m6.53 1.2H1052c-.54 1.66-.83 3.88-.83 5.47 0 2.3.5 4.14 1.92 4.14 2.2 0 4.2-4.35 5.23-7.63.23-.77.43-1.7.53-2M1064.94 762.15l-.8-.28c.62-2.9 2.1-9.33 2.52-10.7.37-1.2 1.07-1.6 1.78-1.6.84 0 1.6.5 1.6 1.65 0 .26-.13.82-.24 1.1-.5 1.34-3.43 7.18-4.86 9.83M1075.47 773.8l-.1.28c-1.56.17-2.22.6-3.1 1.36l-2.5 2.16 1.5 3.57c.36.82.64 1.38 1.25 1.38.7 0 1.22-1 1.73-1.7l.35.24c-.28.5-1.38 3-2.97 3-1.08 0-1.57-1.25-1.83-1.86l-1.48-3.44-1.3 1.15-1.07 3.9h-1.78l3.47-13.82c.05-.14.07-.3.07-.47 0-.26-.22-.52-.74-.52-.2 0-.45 0-.63.05l-.07-.34 3.7-.58-2.65 10.7 3.93-3.5c.26-.24.5-.55.5-.85 0-.28-.4-.45-.62-.45h-.27l.1-.28h4.54"/><path d="M938 698.33h267.18v53.16H938z" fill="#fff" fill-opacity="0"/><path d="M956.12 720.9h-7.2v-.5c2.02-.13 2.28-.54 2.28-2.7v-11.96c0-.7-.15-.93-.93-.93h-5.95c-.67 0-.93.17-.93.86v12.32c0 1.88.33 2.32 2.23 2.42l.03.5h-7.2v-.5c2.02-.13 2.3-.44 2.3-2.65v-10.98c0-2-.3-2.3-2.3-2.45v-.5h17.66v.5c-1.9.16-2.3.47-2.3 2.45v11.26c0 1.83.37 2.22 2.3 2.37v.5M965.97 722.22l.27.3c-.07.1-1.62 2.45-4.55 2.45-2.16 0-4.3-1.2-4.3-4.2 0-4 3.05-7.3 6.5-8.08.43-.1.83-.15 1.2-.15 1.33 0 2.18.64 2.18 1.7 0 .6-.56 1.56-1.36 1.56-.68 0-1.02-.45-1.02-.94 0-.93.9-.76.9-1.25 0-.27-.5-.4-.87-.4-1.9 0-3.86 1.35-4.88 3.88-.42 1.06-.7 2.28-.7 3.8 0 2.33 1.34 3.3 2.94 3.3 1.83 0 3.38-1.65 3.67-1.96M977.7 725.04l-.3.4c-4.07-2.3-6.28-6.66-6.28-11.04 0-4.77 2.24-8.48 6.36-10.93l.23.42c-3.57 3.05-4.37 5.45-4.37 10.42 0 4.8.78 7.7 4.38 10.72M990.67 708.73c0 5.05-3.68 12.45-7.65 12.45-2.45 0-3.53-1.53-3.53-4.62 0-4.48 2.98-12.88 7.87-12.88 1.9 0 3.3 1.62 3.3 5.05m-8.1 3.3h5.3c.38-1.8.64-3.22.64-4.28 0-1.88-.25-3.32-1.3-3.32-1.86 0-3.97 4.53-4.64 7.6m5.07.93h-5.33c-.4 1.28-.65 3-.65 4.25 0 1.78.4 3.23 1.5 3.23 1.73 0 3.27-3.38 4.07-5.93.18-.6.34-1.3.4-1.54M991.7 703.9l.3-.43c3.95 2.37 6.3 6.68 6.3 11.06 0 4.76-2.27 8.42-6.36 10.92l-.24-.4c3.66-3.02 4.38-5.45 4.38-10.45 0-4.8-.64-7.78-4.38-10.7M1023.1 712.65h-15.16v-1.7h15.17v1.7m0 5.15h-15.16v-1.7h15.17v1.7M1042.9 719.2v.7c-.77 1-1.44 1.25-2.32 1.25-.95 0-1.52-.52-1.65-1.88h-.02c-1.36 1.54-2.62 1.88-3.73 1.88-1.6 0-2.7-.98-2.7-2.68 0-1.34.8-2.35 1.8-3 .77-.53 1.72-1.02 4.64-2.1v-1.4c0-1.6-.84-2.3-2-2.3-1.03 0-1.8.55-1.8 1.25 0 .46.15.54.15 1.08 0 .5-.52 1.06-1.2 1.06-.53 0-1.1-.5-1.1-1.2 0-.66.42-1.48 1.32-2.05.72-.45 1.8-.76 2.96-.76 1.44 0 2.42.4 3.04 1.16.62.75.72 1.3.72 2.86v4.92c0 1.2.33 1.7.8 1.7.4 0 .66-.13 1.1-.5m-4-1.56V714c-1.6.55-2.65 1.1-3.3 1.7-.6.55-.87 1.17-.87 1.97 0 1.37.78 1.98 1.78 1.98.53 0 1.07-.12 1.5-.4.75-.52.9-.88.9-1.63M1047.07 709.1v2.36c1.3-1.85 2-2.42 3.1-2.42.87 0 1.4.5 1.4 1.36 0 .73-.37 1.16-1 1.16-.33 0-.6-.12-1.02-.5-.3-.27-.52-.4-.67-.4-.72 0-1.8 1.3-1.8 2.12v5.8c0 1.46.43 1.85 2.18 1.93v.4h-6.18v-.4c1.65-.3 1.83-.48 1.83-1.77v-6.44c0-1.15-.22-1.56-.87-1.56-.3 0-.54.03-.9.1v-.4c1.52-.5 2.45-.86 3.82-1.4M1063.67 710.9h-2.14c.36.82.5 1.4.5 2.16 0 1.34-.42 2.3-1.35 3-.83.6-1.78 1-2.68 1-.16 0-.52-.03-.98-.08l-.5-.06c-.7.2-1.54 1.1-1.54 1.63 0 .4.62.62 2 .7l3.34.15c1.9.07 3.12 1.16 3.12 2.75 0 1.03-.5 1.9-1.55 2.7-1.35 1.04-3.3 1.66-5.16 1.66-2.48 0-4.46-1.13-4.46-2.5 0-.94.67-1.8 2.52-3.13-1.08-.52-1.36-.8-1.36-1.37 0-.52.33-1.03 1.18-1.78.4-.33.75-.67 1.1-1.03-1.7-.86-2.38-1.84-2.38-3.46 0-2.35 1.9-4.2 4.3-4.2.67 0 1.36.13 2.06.4l.57.2c.5.17.9.25 1.4.25h2v1m-8.2 1.28v.08c0 2.47 1.06 4.15 2.66 4.15 1.16 0 1.9-.9 1.9-2.3 0-1.07-.28-2.23-.77-3.13-.4-.77-1.08-1.2-1.88-1.2-1.18 0-1.9.9-1.9 2.4m7.23 10.37c0-.95-.84-1.26-3.18-1.26-1.26 0-3.3-.16-4.18-.34-1.03 1.24-1.26 1.63-1.26 2.22 0 1.13 1.47 1.88 3.74 1.88 2.94 0 4.9-1 4.9-2.5M1088.7 720.9h-5.6v-.4c1.44-.15 1.67-.43 1.67-1.93v-5.3c0-2.04-.52-2.9-1.98-2.9-1.23 0-2 .47-2.77 1.58v6.5c0 1.67.4 2.03 1.85 2.06v.4h-5.77v-.4c1.48-.1 1.76-.25 1.76-1.82v-5.44c0-1.78-.56-2.86-1.67-2.86-.96 0-2.23.5-2.74 1.1-.18.2-.34.4-.34.45v7.16c0 1.1.4 1.35 1.76 1.4v.4h-5.72v-.4c1.44-.02 1.8-.38 1.8-1.88v-6.4c0-1.25-.23-1.7-.9-1.7-.3 0-.5.04-.83.12v-.44c1.42-.4 2.27-.67 3.58-1.16l.22.08v1.9h.05c1.7-1.75 2.78-1.98 3.94-1.98 1.4 0 2.28.7 2.75 2.16 1.4-1.5 2.7-2.16 4.2-2.16 2.08 0 2.98 1.6 2.98 4.64v5.23c0 1.17.34 1.5 1.1 1.55l.68.06v.4M1093.43 704.6c0 .75-.57 1.32-1.34 1.32-.73 0-1.3-.57-1.3-1.3 0-.73.6-1.33 1.3-1.33.76 0 1.33.6 1.33 1.3m1.88 16.3h-6.1v-.4c1.78-.1 2.04-.33 2.04-2.3v-5.84c0-1.2-.2-1.62-.85-1.62-.25 0-.63 0-1.1.13v-.4l4-1.43.1.1v9.05c0 1.9.2 2.18 1.9 2.3v.4M1108.47 720.9h-5.36l.04-.4c1.3-.1 1.6-.6 1.6-2.3v-5.14c0-1.83-.62-2.6-1.88-2.6-.85 0-1.47.3-2.66 1.47v7.1c0 1 .36 1.37 1.68 1.48v.4h-5.44v-.4c1.32-.1 1.6-.5 1.6-2.03v-6.26c0-1.25-.18-1.67-.9-1.67-.3 0-.57.03-.75.1v-.43c1.4-.4 2.26-.7 3.52-1.16l.2.08v2h.03c1.34-1.5 2.53-2.08 3.7-2.08 1.97 0 3.05 1.42 3.05 3.97v5.7c0 1.4.3 1.68 1.57 1.8v.4M1059.7 736.75c0 3.57-2.6 8.8-5.4 8.8-1.74 0-2.5-1.08-2.5-3.27 0-3.17 2.1-9.1 5.57-9.1 1.33 0 2.33 1.14 2.33 3.57m-5.74 2.33h3.76c.27-1.28.45-2.28.45-3.03 0-1.33-.18-2.35-.93-2.35-1.3 0-2.8 3.2-3.28 5.38m3.6.65h-3.78c-.3.9-.45 2.13-.45 3 0 1.27.27 2.3 1.05 2.3 1.22 0 2.32-2.4 2.88-4.2.13-.42.24-.93.3-1.1M1060.9 737.77l-.44-.16c.33-1.57 1.15-5.1 1.38-5.86.2-.66.6-.9.98-.9.46 0 .87.3.87.92 0 .15-.07.46-.14.6-.27.74-1.88 3.95-2.66 5.4M1077.48 745.84h-5.3c-2.9 0-5-2.4-5-5.1 0-2.68 2.05-5.07 4.95-5.07h5.35v1.2h-5.28c-1.88 0-3.44 1.55-3.75 3.28h9.03v1.2h-9.05c.3 1.73 1.87 3.28 3.75 3.28h5.3v1.2M1087.94 742.8l.27.28c-.06.1-1.6 2.46-4.54 2.46-2.15 0-4.3-1.2-4.3-4.2 0-4 3.06-7.3 6.5-8.07.44-.1.84-.15 1.22-.15 1.3 0 2.17.64 2.17 1.7 0 .6-.57 1.56-1.37 1.56-.67 0-1.02-.45-1.02-.95 0-.93.9-.76.9-1.25 0-.28-.48-.42-.86-.42-1.9 0-3.86 1.36-4.88 3.9-.42 1.05-.7 2.27-.7 3.8 0 2.32 1.34 3.3 2.94 3.3 1.84 0 3.4-1.66 3.68-1.97M1125.48 725.76h-1.7V703.1h1.7v22.66m-5.13 0h-1.7V703.1h1.7v22.66M1141.02 708.73c0 5.05-3.7 12.45-7.66 12.45-2.44 0-3.53-1.53-3.53-4.62 0-4.48 3-12.88 7.9-12.88 1.87 0 3.3 1.62 3.3 5.05m-8.13 3.3h5.3c.4-1.8.65-3.22.65-4.28 0-1.88-.26-3.32-1.3-3.32-1.87 0-3.98 4.53-4.65 7.6m5.08.93h-5.34c-.4 1.28-.64 3-.64 4.25 0 1.78.38 3.23 1.5 3.23 1.72 0 3.26-3.38 4.06-5.93.18-.6.34-1.3.42-1.54M1163.02 715.22h-14.35v-1.7h14.35v1.7M1182.63 708.73c0 5.05-3.7 12.45-7.65 12.45-2.45 0-3.53-1.53-3.53-4.62 0-4.48 2.98-12.88 7.88-12.88 1.88 0 3.3 1.62 3.3 5.05m-8.12 3.3h5.32c.4-1.8.64-3.22.64-4.28 0-1.88-.25-3.32-1.3-3.32-1.87 0-3.98 4.53-4.65 7.6m5.1.93h-5.35c-.4 1.28-.64 3-.64 4.25 0 1.78.4 3.23 1.5 3.23 1.73 0 3.28-3.38 4.08-5.93.18-.6.33-1.3.4-1.54M1184.3 711.04l-.6-.22c.47-2.24 1.62-7.25 1.94-8.3.3-.94.84-1.27 1.4-1.27.64 0 1.23.4 1.23 1.3 0 .2-.1.64-.2.85-.37 1.04-2.64 5.58-3.76 7.64M1201.82 725.76h-1.7V703.1h1.7v22.66m-5.12 0h-1.7V703.1h1.7v22.66"/><path d="M938 638.28h540.04V680H938z" fill="#fff" fill-opacity="0"/><path d="M950.86 659.5h-.64c-.23-.98-.57-1.6-1.5-1.6h-2.68c-.98 0-1.26.54-1.62 1.6h-.64c.18-.68.26-1.52.26-2.24 0-.77-.1-2.2-.3-3.03h.65c.35 1.05.6 1.5 1.6 1.5h2.73c.87 0 1.3-.62 1.5-1.5h.63c-.18.72-.28 1.3-.28 2.05 0 .77.1 2.42.28 3.2m4.8-2.43c0 5.3-3.47 8.85-8.4 8.85-4.97 0-8.38-3.6-8.38-8.92 0-5.2 3.4-8.77 8.4-8.77s8.37 3.78 8.37 8.85m-2.92-.15c0-2.92-.87-5.33-2.33-6.57-.93-.77-1.95-1.2-3.16-1.2-1.38 0-2.67.56-3.67 1.72-1.1 1.25-1.77 3.74-1.77 6.18 0 3.05.75 5.36 2.3 6.8.88.8 2 1.15 3.2 1.15 1.27 0 2.4-.38 3.3-1.23 1.4-1.36 2.13-3.77 2.13-6.85M957.94 656.7l-.62-.22c.47-2.23 1.6-7.22 1.94-8.27.3-.92.83-1.24 1.38-1.24.65 0 1.23.4 1.23 1.28 0 .2-.1.64-.18.86-.4 1.03-2.66 5.55-3.76 7.6M961.65 663.7l-.18.68h-1.27l-1.4 5.8c-.03.06-.05.15-.05.2 0 .1.06.22.3.22 0 0 .4-.03 1.08-.94l.24.2c-.44.56-1.35 1.94-2.42 1.94-.56 0-.7-.45-.7-.94 0-.24.03-.47.1-.67l1.46-5.82h-1.4l.1-.52c1.36-.26 2.47-.93 3.2-2.5h.25l-.57 2.33h1.27M994.38 659.9h-15.36c-.26 0-.67.3-.67.57 0 .23.1.38.36.64.76.73 1.55 1.62 2.12 2.47l-.52.5c-1.66-1.94-3.6-3.86-6.08-4.9v-.24c2.47-1.05 4.42-2.95 6.1-4.9l.52.5c-.6.83-1.33 1.65-2.1 2.45-.23.23-.36.5-.36.72 0 .25.2.5.67.5h15.33v1.7M1015.6 648.4l-1.42 5.86c2.65 0 5 .97 5 3.97 0 2-.7 3.77-2.05 5.24-1.53 1.66-3.56 2.36-5.8 2.36l-1.22 4.4h-2.07l1.18-4.4c-2.76 0-4.9-1.44-4.9-4.4 0-1.94.8-3.63 2.16-5.02 1.44-1.45 3.2-2.14 5.26-2.14h.4c.5-1.95.96-3.9 1.37-5.85h2.1m-1.6 6.6l-2.48 10.06c3.1 0 5.5-3.88 5.5-6.7 0-2.02-.83-3.38-3-3.36m-4.58 10.06l2.54-10.06c-3.34 0-5.52 3.44-5.52 6.5 0 1.6 1.18 3.56 2.98 3.56M1027.63 669.67l-.3.4c-4.07-2.3-6.27-6.63-6.27-11 0-4.73 2.23-8.43 6.33-10.86l.23.42c-3.57 3.05-4.37 5.43-4.37 10.38 0 4.77.77 7.67 4.37 10.67M1041.24 659.5h-.64c-.23-.98-.56-1.6-1.48-1.6h-2.7c-.97 0-1.25.54-1.6 1.6h-.65c.18-.68.25-1.52.25-2.24 0-.77-.1-2.2-.28-3.03h.64c.36 1.05.62 1.5 1.62 1.5h2.72c.87 0 1.3-.62 1.48-1.5h.64c-.17.72-.28 1.3-.28 2.05 0 .77.1 2.42.28 3.2m4.8-2.43c0 5.3-3.46 8.85-8.4 8.85-4.96 0-8.37-3.6-8.37-8.92 0-5.2 3.38-8.77 8.38-8.77 5.03 0 8.4 3.78 8.4 8.85m-2.93-.15c0-2.92-.88-5.33-2.34-6.57-.92-.77-1.95-1.2-3.15-1.2-1.4 0-2.67.56-3.67 1.72-1.1 1.25-1.77 3.74-1.77 6.18 0 3.05.73 5.36 2.3 6.8.87.8 2 1.15 3.18 1.15 1.28 0 2.4-.38 3.3-1.23 1.42-1.36 2.14-3.77 2.14-6.85M1048.32 656.7l-.6-.22c.46-2.23 1.6-7.22 1.93-8.27.3-.92.83-1.24 1.38-1.24.65 0 1.23.4 1.23 1.28 0 .2-.1.64-.18.86-.38 1.03-2.65 5.55-3.76 7.6M1050.05 668.92h.04l1.02-1.33c.98-1.26 1.9-2.13 2.96-2.13.7 0 1.08.37 1.08.98 0 .4-.16.94-.27 1.42l-1.37 5.67c-.27 1.14-.42 2.05-.42 2.6 0 .27.03.5.1.65h-1.37c-.17-.2-.2-.52-.2-.85 0-.74.25-1.77 1.8-7.9.05-.18.14-.56.14-.87 0-.3-.2-.53-.5-.53-.73 0-3.1 3.07-3.64 4.92l-.56 1.9h-1.4l1.38-5.5c.1-.47.24-.83.24-1.08 0-.18-.05-.25-.25-.25-.4 0-.8.53-1.08.9l-.24-.17c.1-.13.4-.62.83-1.05.46-.46 1.13-.86 1.53-.86.57 0 .73.3.73.75 0 .76-.42 2-.58 2.7M1064.8 665.7l-.06.23c-1.22.12-1.72.45-2.4 1.05l-1.94 1.67 1.17 2.75c.27.64.48 1.07.96 1.07.54 0 .94-.78 1.34-1.32l.27.2c-.22.38-1.07 2.32-2.3 2.32-.84 0-1.22-.96-1.42-1.43l-1.14-2.67-1.02.9-.8 3h-1.4l2.7-10.68c.03-.12.05-.25.05-.37 0-.2-.17-.4-.57-.4-.16 0-.35 0-.5.03l-.05-.25 2.87-.44-2.05 8.27 3.03-2.7c.2-.2.38-.42.38-.66 0-.22-.28-.34-.46-.34h-.22l.07-.22h3.5M1068.43 648.62l.3-.4c3.93 2.35 6.27 6.63 6.27 11 0 4.73-2.26 8.38-6.34 10.86l-.23-.4c3.64-3 4.36-5.42 4.36-10.4 0-4.8-.65-7.74-4.37-10.66M1098.24 659.9h-6.7v6.7h-1.7v-6.7h-6.68v-1.7h6.7v-6.7h1.68v6.7h6.7v1.7M1113 669.67l-.3.4c-4.05-2.3-6.26-6.63-6.26-11 0-4.73 2.24-8.43 6.34-10.86l.23.42c-3.55 3.05-4.35 5.43-4.35 10.38 0 4.77.77 7.67 4.36 10.67M1121 654.3l-.24.98h-1.8l-2 8.2c-.03.1-.05.22-.05.3 0 .15.1.3.42.3 0 0 .6-.05 1.54-1.33l.33.28c-.62.8-1.9 2.75-3.42 2.75-.8 0-1-.65-1-1.34 0-.33.05-.67.13-.95l2.1-8.22h-2l.14-.74c1.92-.36 3.5-1.3 4.54-3.54h.33l-.78 3.3h1.8M1143.43 659.9h-14.3v-1.7h14.3v1.7M1155.23 659.1h.05l1.46-1.87c1.4-1.77 2.67-3 4.18-3 1 0 1.54.52 1.54 1.4 0 .55-.23 1.32-.38 2l-1.93 8.02c-.38 1.6-.6 2.9-.6 3.7 0 .35.04.68.14.9h-1.96c-.23-.3-.28-.73-.28-1.2 0-1.04.36-2.5 2.54-11.17.08-.26.2-.8.2-1.24 0-.43-.28-.74-.7-.74-1.04 0-4.37 4.33-5.14 6.95l-.8 2.7h-2l1.98-7.8c.15-.64.33-1.16.33-1.52 0-.23-.05-.33-.33-.33-.57 0-1.13.74-1.54 1.28l-.34-.25c.13-.18.57-.88 1.18-1.5.64-.63 1.6-1.2 2.16-1.2.82 0 1.05.44 1.05 1.05 0 1.08-.6 2.85-.82 3.83M1176.1 654.57l-.1.3c-1.7.18-2.43.65-3.4 1.5l-2.73 2.35 1.65 3.9c.38.9.7 1.5 1.36 1.5.76 0 1.33-1.1 1.9-1.86l.38.28c-.3.54-1.52 3.3-3.26 3.3-1.18 0-1.72-1.37-2-2.04l-1.62-3.77-1.43 1.26-1.16 4.24h-1.96l3.8-15.1c.05-.16.08-.34.08-.52 0-.28-.26-.56-.82-.56-.23 0-.5 0-.7.05l-.07-.35 4.05-.64-2.9 11.7 4.28-3.82c.3-.25.54-.58.54-.92 0-.3-.4-.5-.66-.5h-.3l.1-.3h4.97M1177.26 648.62l.3-.4c3.93 2.35 6.27 6.63 6.27 11 0 4.73-2.26 8.38-6.34 10.86l-.24-.4c3.64-3 4.36-5.42 4.36-10.4 0-4.8-.64-7.74-4.36-10.66M1204.94 648.8l-.1.4h-.42c-1.92 0-2.5.7-2.74 1.62l-2.23 9.13c-.67 2.72-2.1 5.93-6.98 5.93-4.1 0-5.7-2.46-5.7-4.8 0-.2.3-2.2.37-2.44l1.95-8.46V650c0-.5-.53-.8-1.9-.8h-.47l.1-.4h8.4l-.1.4h-.43c-2.02 0-2.5.7-2.72 1.62l-2.3 9.24c-.1.38-.18 1.3-.18 1.74 0 1.38 1.2 2.87 3.7 2.87 2.84 0 4.32-2.08 5-4.85l2.2-9c.05-.18.1-.38.1-.67-.03-.6-.44-.94-1.92-.94h-.5l.1-.4h6.76M1214.4 665.42h-10.1v-1.2h10.1v1.2M1225.97 669.67l-.3.4c-4.06-2.3-6.27-6.63-6.27-11 0-4.73 2.23-8.43 6.34-10.86l.23.42c-3.57 3.05-4.36 5.43-4.36 10.38 0 4.77.78 7.67 4.37 10.67M1239.56 659.5h-.64c-.23-.98-.56-1.6-1.5-1.6h-2.68c-.97 0-1.26.54-1.62 1.6h-.64c.18-.68.26-1.52.26-2.24 0-.77-.1-2.2-.28-3.03h.64c.36 1.05.6 1.5 1.6 1.5h2.73c.88 0 1.3-.62 1.5-1.5h.63c-.18.72-.28 1.3-.28 2.05 0 .77.1 2.42.28 3.2m4.8-2.43c0 5.3-3.46 8.85-8.4 8.85-4.96 0-8.38-3.6-8.38-8.92 0-5.2 3.4-8.77 8.4-8.77 5.02 0 8.38 3.78 8.38 8.85m-2.93-.15c0-2.92-.87-5.33-2.33-6.57-.92-.77-1.95-1.2-3.15-1.2-1.4 0-2.67.56-3.67 1.72-1.1 1.25-1.77 3.74-1.77 6.18 0 3.05.75 5.36 2.32 6.8.87.8 2 1.15 3.18 1.15 1.28 0 2.4-.38 3.3-1.23 1.42-1.36 2.13-3.77 2.13-6.85M1246.64 656.7l-.62-.22c.48-2.23 1.62-7.22 1.94-8.27.3-.92.84-1.24 1.38-1.24.66 0 1.24.4 1.24 1.28 0 .2-.1.64-.2.86-.37 1.03-2.63 5.55-3.74 7.6M1248.37 668.92h.03l1.04-1.33c.98-1.26 1.88-2.13 2.95-2.13.7 0 1.08.37 1.08.98 0 .4-.16.94-.27 1.42l-1.35 5.67c-.27 1.14-.42 2.05-.42 2.6 0 .27.02.5.1.65h-1.4c-.15-.2-.18-.52-.18-.85 0-.74.25-1.77 1.8-7.9.05-.18.14-.56.14-.87 0-.3-.2-.53-.52-.53-.73 0-3.08 3.07-3.63 4.92l-.56 1.9h-1.43l1.4-5.5c.1-.47.24-.83.24-1.08 0-.18-.03-.25-.23-.25-.4 0-.8.53-1.1.9l-.22-.17c.1-.13.4-.62.83-1.05.45-.46 1.13-.86 1.52-.86.58 0 .75.3.75.75 0 .76-.42 2-.58 2.7M1263.13 665.7l-.07.23c-1.22.12-1.73.45-2.42 1.05l-1.92 1.67 1.16 2.75c.27.64.5 1.07.96 1.07.55 0 .95-.78 1.35-1.32l.26.2c-.22.38-1.07 2.32-2.3 2.32-.84 0-1.22-.96-1.42-1.43l-1.14-2.67-1.02.9-.8 3h-1.4l2.7-10.68c.03-.12.05-.25.05-.37 0-.2-.18-.4-.58-.4-.17 0-.35 0-.5.03l-.05-.25 2.87-.44-2.05 8.27 3.03-2.7c.2-.2.38-.42.38-.66 0-.22-.3-.34-.47-.34h-.22l.07-.22h3.53M1266.75 648.62l.3-.4c3.93 2.35 6.27 6.63 6.27 11 0 4.73-2.26 8.38-6.34 10.86l-.23-.4c3.64-3 4.36-5.42 4.36-10.4 0-4.8-.63-7.74-4.35-10.66M1296.58 659.9h-6.7v6.7h-1.7v-6.7h-6.68v-1.7h6.7v-6.7h1.7v6.7h6.68v1.7M1328.23 641.92l-12.26 31.6h-.82l-5.18-13.6c-.44-1.15-.95-1.5-1.6-1.5-.43 0-1.1.28-1.66.8l-.3-.52 4-3.18h.5l5.22 13.74h.1l10.63-27.34h1.38"/><path d="M1327.33 643.43h118.45v-1.53h-118.45zM1339.5 662.03l-1.4 3.5h-10.02v-.3l4.56-4.84c2.4-2.55 3.34-4.5 3.34-6.68 0-2.33-1.4-3.62-3.57-3.62-1.84 0-2.73.82-3.76 3.34l-.54-.13c.54-3 2.18-5.1 5.34-5.1 2.9 0 4.74 1.98 4.74 4.52 0 2.03-1 3.95-3.28 6.36l-4.23 4.5h6c1.08 0 1.62-.27 2.46-1.7M1347.95 669.67l-.3.4c-4.06-2.3-6.26-6.63-6.26-11 0-4.73 2.22-8.43 6.32-10.86l.23.42c-3.56 3.05-4.36 5.43-4.36 10.38 0 4.77.76 7.67 4.35 10.67M1355.98 654.3l-.25.98h-1.8l-2 8.2c-.03.1-.05.22-.05.3 0 .15.08.3.4.3 0 0 .6-.05 1.55-1.33l.33.28c-.6.8-1.9 2.75-3.4 2.75-.8 0-1-.65-1-1.34 0-.33.04-.67.12-.95l2.08-8.22h-1.98l.13-.74c1.93-.36 3.5-1.3 4.55-3.54h.33l-.8 3.3h1.8M1378.37 659.9h-14.28v-1.7h14.27v1.7M1390.17 659.1h.05l1.47-1.87c1.37-1.77 2.65-3 4.17-3 1 0 1.54.52 1.54 1.4 0 .55-.22 1.32-.38 2l-1.92 8.02c-.4 1.6-.6 2.9-.6 3.7 0 .35.03.68.14.9h-1.95c-.24-.3-.3-.73-.3-1.2 0-1.04.36-2.5 2.54-11.17.08-.26.2-.8.2-1.24 0-.43-.27-.74-.7-.74-1.04 0-4.37 4.33-5.14 6.95l-.8 2.7h-2l1.98-7.8c.15-.64.33-1.16.33-1.52 0-.23-.04-.33-.32-.33-.56 0-1.13.74-1.54 1.28l-.33-.25c.14-.18.57-.88 1.2-1.5.63-.63 1.58-1.2 2.14-1.2.82 0 1.05.44 1.05 1.05 0 1.08-.6 2.85-.83 3.83M1411.05 654.57l-.1.3c-1.72.18-2.44.65-3.4 1.5l-2.73 2.35 1.64 3.9c.38.9.7 1.5 1.36 1.5.77 0 1.33-1.1 1.9-1.86l.38.28c-.3.54-1.5 3.3-3.26 3.3-1.18 0-1.7-1.37-2-2.04l-1.6-3.77-1.45 1.26-1.16 4.24h-1.95l3.78-15.1c.06-.16.08-.34.08-.52 0-.28-.26-.56-.82-.56-.23 0-.5 0-.7.05l-.07-.35 4.05-.64-2.9 11.7 4.3-3.82c.27-.25.53-.58.53-.92 0-.3-.4-.5-.67-.5h-.3l.1-.3h4.97M1412.2 648.62l.3-.4c3.94 2.35 6.27 6.63 6.27 11 0 4.73-2.26 8.38-6.33 10.86l-.23-.4c3.65-3 4.37-5.42 4.37-10.4 0-4.8-.65-7.74-4.36-10.66M1434.03 654.57l-.5 1.87h-4.45c.57 1.6 2.16 1.74 2.16 3.67 0 2.88-2.85 5.73-6.57 5.73-2.64 0-3.64-2.26-3.64-4.1 0-4.37 3.33-7.16 6.67-7.16h6.33m-6.7 1.87h-.04c-1.73.15-4.2 2.36-4.2 6 0 .82.3 2.62 1.67 2.62 2.54 0 4.4-3.23 4.4-5.3 0-1.65-1-2.8-1.83-3.32M1442.7 655.66l-.97 2.5h-7.1v-.23l3.23-3.43c1.7-1.8 2.36-3.17 2.36-4.7 0-1.66-.98-2.57-2.52-2.57-1.3 0-1.94.58-2.66 2.36l-.4-.1c.4-2.13 1.56-3.6 3.8-3.6 2.04 0 3.34 1.38 3.34 3.18 0 1.43-.7 2.8-2.32 4.5l-3 3.2h4.25c.77 0 1.15-.2 1.75-1.23M1466.38 648.8l-14.52 15.77h5.6c2.4 0 4.66-.28 5.56-3.6h.4l-1.17 4.57h-14.9l14.7-15.8h-5.2c-2.45 0-4.73.16-5.7 3.1h-.45l1.24-4.04h14.44M1475.16 661.65l-.07.2c-1.22.14-1.73.47-2.42 1.06l-1.92 1.68 1.16 2.76c.27.63.5 1.07.96 1.07.54 0 .94-.77 1.34-1.3l.27.2c-.22.37-1.08 2.3-2.3 2.3-.84 0-1.22-.95-1.42-1.43l-1.15-2.66-1 .9-.83 3h-1.38l2.7-10.67c.02-.1.04-.24.04-.37 0-.2-.18-.4-.58-.4-.16 0-.34 0-.5.04l-.04-.25 2.86-.46-2.05 8.26 3.03-2.7c.2-.18.38-.42.38-.65 0-.2-.3-.34-.47-.34h-.23l.08-.2h3.5"/><path d="M572.2 553.38h94.33v37.38H572.2z" fill="#fff" fill-opacity="0"/><path d="M588.12 556.12l-1.82 7.57c3.42 0 6.47 1.25 6.47 5.13 0 2.58-.9 4.87-2.66 6.76-1.98 2.15-4.6 3.04-7.48 3.04l-1.6 5.7h-2.68l1.53-5.7c-3.6 0-6.34-1.85-6.34-5.67 0-2.52 1.03-4.7 2.8-6.5 1.84-1.9 4.13-2.78 6.8-2.78h.52c.63-2.54 1.22-5.06 1.75-7.58h2.72m-2.05 8.53l-3.22 13c4 0 7.1-5 7.1-8.66 0-2.63-1.06-4.4-3.88-4.35m-5.9 13l3.28-13c-4.3 0-7.13 4.44-7.13 8.4 0 2.08 1.52 4.6 3.84 4.6M603.68 583.62l-.4.53c-5.24-3-8.1-8.6-8.1-14.23 0-6.14 2.9-10.9 8.2-14.06l.3.53c-4.6 3.94-5.64 7.02-5.64 13.42 0 6.17 1 9.92 5.64 13.8M621.3 570.45h-.84c-.3-1.26-.73-2.06-1.92-2.06h-3.5c-1.25 0-1.6.7-2.08 2.05h-.82c.23-.86.33-1.96.33-2.88 0-1-.14-2.86-.37-3.92h.83c.47 1.36.8 1.93 2.1 1.93h3.5c1.13 0 1.7-.8 1.93-1.93h.83c-.24.93-.38 1.7-.38 2.66 0 1 .14 3.12.37 4.15m6.2-3.15c0 6.83-4.5 11.44-10.85 11.44-6.44 0-10.85-4.64-10.85-11.54 0-6.73 4.38-11.34 10.85-11.34 6.5 0 10.84 4.87 10.84 11.44m-3.8-.2c0-3.78-1.12-6.9-3-8.5-1.2-.98-2.53-1.55-4.1-1.55-1.78 0-3.44.73-4.73 2.22-1.43 1.63-2.3 4.85-2.3 8 0 3.94.97 6.93 3 8.8 1.12 1 2.58 1.48 4.1 1.48 1.67 0 3.13-.5 4.3-1.6 1.8-1.75 2.74-4.87 2.74-8.85M632.67 577.37h.05l1.34-1.7c1.26-1.63 2.44-2.76 3.82-2.76.9 0 1.4.48 1.4 1.28 0 .5-.2 1.22-.35 1.83l-1.75 7.35c-.36 1.47-.54 2.65-.54 3.37 0 .33.02.64.1.82h-1.77c-.2-.25-.26-.65-.26-1.08 0-.96.34-2.3 2.34-10.22.07-.23.18-.73.18-1.12 0-.4-.25-.68-.65-.68-.94 0-4 3.96-4.7 6.35l-.72 2.45h-1.83l1.8-7.13c.15-.58.3-1.05.3-1.38 0-.2-.04-.3-.3-.3-.5 0-1.02.68-1.4 1.17l-.3-.23c.1-.16.5-.8 1.07-1.36.58-.57 1.45-1.1 1.96-1.1.75 0 .96.4.96.97 0 1-.53 2.6-.75 3.5M651.76 573.22l-.1.28c-1.56.16-2.22.58-3.1 1.36l-2.5 2.16 1.5 3.56c.36.82.64 1.38 1.25 1.38.7 0 1.23-1 1.74-1.7l.35.25c-.3.5-1.4 3-2.98 3-1.08 0-1.58-1.23-1.83-1.84l-1.5-3.45-1.3 1.16-1.06 3.9h-1.78l3.47-13.82c.05-.14.07-.3.07-.47 0-.25-.24-.5-.75-.5-.2 0-.45 0-.63.03l-.07-.32 3.7-.6-2.65 10.7 3.92-3.5c.25-.23.5-.53.5-.84 0-.28-.4-.44-.62-.44h-.28l.1-.28h4.54M656.4 556.4l.4-.54c5.08 3.05 8.1 8.6 8.1 14.23 0 6.12-2.92 10.83-8.2 14.05l-.3-.53c4.72-3.88 5.65-7 5.65-13.43 0-6.22-.83-10.03-5.64-13.8"/><path d="M572.2 664.83h94.33v45.66H572.2z" fill="#fff" fill-opacity="0"/><path d="M588.12 669.65l-1.82 7.56c3.42 0 6.47 1.27 6.47 5.15 0 2.6-.9 4.88-2.66 6.77-1.98 2.15-4.6 3.05-7.48 3.05l-1.6 5.7h-2.68l1.53-5.7c-3.6 0-6.34-1.86-6.34-5.67 0-2.52 1.03-4.7 2.8-6.5 1.84-1.9 4.13-2.8 6.8-2.8h.52c.63-2.5 1.22-5.03 1.75-7.55h2.72m-2.05 8.52l-3.22 13c4 0 7.1-5 7.1-8.65 0-2.62-1.06-4.38-3.88-4.35m-5.9 13l3.28-13c-4.3 0-7.13 4.45-7.13 8.4 0 2.08 1.52 4.6 3.84 4.6M603.68 697.14l-.4.53c-5.24-2.98-8.1-8.6-8.1-14.23 0-6.13 2.9-10.9 8.2-14.06l.3.53c-4.6 3.96-5.64 7.04-5.64 13.45 0 6.16 1 9.9 5.64 13.8M621.3 683.98h-.84c-.3-1.26-.73-2.06-1.92-2.06h-3.5c-1.25 0-1.6.7-2.08 2.06h-.82c.23-.87.33-1.96.33-2.9 0-.98-.14-2.84-.37-3.9h.83c.47 1.36.8 1.92 2.1 1.92h3.5c1.13 0 1.7-.8 1.93-1.92h.83c-.24.93-.38 1.7-.38 2.65 0 1 .14 3.12.37 4.15m6.2-3.16c0 6.84-4.5 11.45-10.85 11.45-6.44 0-10.85-4.65-10.85-11.54 0-6.74 4.38-11.35 10.85-11.35 6.5 0 10.84 4.88 10.84 11.44m-3.8-.2c0-3.77-1.12-6.9-3-8.48-1.2-1-2.53-1.56-4.1-1.56-1.78 0-3.44.73-4.73 2.22-1.43 1.62-2.3 4.84-2.3 8 0 3.94.97 6.92 3 8.78 1.12 1.03 2.58 1.5 4.1 1.5 1.67 0 3.13-.5 4.3-1.6 1.8-1.76 2.74-4.87 2.74-8.85M630.44 680.36l-.8-.28c.6-2.9 2.1-9.33 2.5-10.7.4-1.2 1.1-1.6 1.8-1.6.84 0 1.6.5 1.6 1.65 0 .26-.13.82-.24 1.1-.5 1.34-3.43 7.18-4.86 9.83M632.67 696.17h.05l1.34-1.72c1.26-1.6 2.44-2.74 3.82-2.74.9 0 1.4.48 1.4 1.28 0 .5-.2 1.22-.35 1.83l-1.75 7.34c-.36 1.48-.54 2.65-.54 3.38 0 .33.02.63.1.82h-1.77c-.2-.26-.26-.66-.26-1.08 0-.96.34-2.3 2.34-10.22.07-.23.18-.73.18-1.13 0-.38-.25-.67-.65-.67-.94 0-4 3.97-4.7 6.36l-.72 2.45h-1.83l1.8-7.13c.15-.58.3-1.05.3-1.38 0-.2-.04-.3-.3-.3-.5 0-1.02.67-1.4 1.17l-.3-.23c.1-.16.5-.8 1.07-1.36.58-.57 1.45-1.1 1.96-1.1.75 0 .96.4.96.97 0 1-.53 2.6-.75 3.5M651.76 692l-.1.3c-1.56.16-2.22.58-3.1 1.36l-2.5 2.15 1.5 3.58c.36.82.64 1.38 1.25 1.38.7 0 1.23-1 1.74-1.7l.35.25c-.3.5-1.4 3-2.98 3-1.08 0-1.58-1.23-1.83-1.84l-1.5-3.45-1.3 1.16-1.06 3.9h-1.78l3.47-13.82c.05-.14.07-.3.07-.47 0-.26-.24-.5-.75-.5-.2 0-.45 0-.63.03l-.07-.33 3.7-.58-2.65 10.68 3.92-3.5c.25-.23.5-.53.5-.84 0-.28-.4-.44-.62-.44h-.28l.1-.3h4.54M656.4 669.9l.4-.52c5.08 3.05 8.1 8.6 8.1 14.23 0 6.15-2.92 10.86-8.2 14.07l-.3-.53c4.72-3.88 5.65-7 5.65-13.43 0-6.2-.83-10-5.64-13.8"/><path d="M745.22 381.92H1080V440H745.22z" fill="#fff" fill-opacity="0"/><path d="M761.84 399H761c-.3-1.27-.72-2.06-1.92-2.06h-3.48c-1.26 0-1.62.7-2.1 2.06h-.82c.24-.87.34-1.96.34-2.9 0-1-.14-2.84-.37-3.9h.83c.46 1.36.8 1.92 2.1 1.92h3.5c1.13 0 1.7-.8 1.93-1.92h.84c-.23.92-.37 1.7-.37 2.65 0 1 .14 3.12.37 4.15m6.2-3.16c0 6.84-4.48 11.45-10.85 11.45-6.44 0-10.85-4.66-10.85-11.56 0-6.73 4.38-11.34 10.84-11.34 6.5 0 10.84 4.88 10.84 11.44m-3.78-.2c0-3.78-1.13-6.9-3.02-8.48-1.2-1-2.52-1.56-4.08-1.56-1.8 0-3.45.73-4.74 2.22-1.43 1.62-2.3 4.84-2.3 8 0 3.94.97 6.92 3 8.78 1.12 1.03 2.58 1.5 4.1 1.5 1.67 0 3.12-.5 4.3-1.6 1.8-1.76 2.74-4.87 2.74-8.85M773.22 405.9h.05l1.34-1.7c1.27-1.62 2.45-2.74 3.83-2.74.9 0 1.4.47 1.4 1.26 0 .52-.2 1.22-.35 1.83l-1.75 7.34c-.36 1.47-.54 2.64-.54 3.37 0 .33 0 .63.1.82h-1.78c-.2-.27-.26-.67-.26-1.1 0-.95.33-2.3 2.32-10.2.07-.25.2-.74.2-1.14 0-.4-.27-.68-.66-.68-.94 0-4 3.96-4.7 6.35l-.72 2.47h-1.83l1.8-7.13c.15-.6.3-1.06.3-1.38 0-.23-.04-.32-.3-.32-.5 0-1.03.68-1.4 1.17l-.3-.23c.1-.17.5-.8 1.07-1.36.6-.6 1.46-1.1 1.97-1.1.76 0 .97.4.97.96 0 .98-.54 2.6-.75 3.5M787.08 415.57l-.28.38c-3.7-2.1-5.72-6.08-5.72-10.06 0-4.35 2.04-7.73 5.8-9.95l.2.37c-3.26 2.8-4 4.97-4 9.5 0 4.36.72 7 4 9.75M800.12 401.76l-.1.28c-1.57.17-2.22.6-3.1 1.36l-2.5 2.16 1.5 3.56c.35.82.63 1.4 1.24 1.4.7 0 1.22-1.02 1.74-1.72l.35.25c-.28.5-1.38 3-2.98 3-1.08 0-1.57-1.24-1.83-1.85l-1.47-3.44-1.32 1.14-1.05 3.9h-1.78l3.47-13.8c.03-.15.06-.32.06-.48 0-.26-.24-.52-.75-.52-.2 0-.44 0-.63.05l-.07-.33 3.7-.6-2.64 10.7 3.9-3.5c.27-.22.5-.53.5-.83 0-.3-.37-.46-.6-.46h-.3l.1-.28h4.56M815.4 406.64h-6.1v6.12h-1.56v-6.12h-6.12v-1.55h6.12v-6.13h1.55v6.12h6.1v1.54M825.8 411.8h-6.48v-.36c1.74-.1 2.23-.58 2.23-1.87v-10.53c0-.8-.2-1.15-.7-1.15-.24 0-.64.1-1.06.27l-.64.24v-.32l4.2-2.13.2.07v14c0 1 .47 1.42 2.23 1.42v.36M828.98 396.32l.28-.37c3.6 2.15 5.72 6.07 5.72 10.06 0 4.34-2.06 7.67-5.8 9.95l-.2-.38c3.33-2.74 4-4.95 4-9.5 0-4.38-.6-7.08-4-9.75M869.8 396.2h-19.55v-2.18h19.54v2.2m0 6.62h-19.55v-2.2h19.54v2.2M903.95 406.82h-9.25v-.63c2.58-.17 2.9-.7 2.9-3.5v-15.38c0-.9-.2-1.2-1.18-1.2h-7.66c-.86 0-1.2.2-1.2 1.1v15.85c0 2.43.44 3 2.9 3.12l.02.62h-9.25v-.63c2.6-.17 2.95-.57 2.95-3.42v-14.13c0-2.6-.4-2.95-2.95-3.15v-.63h22.72v.63c-2.46.2-2.95.6-2.95 3.15v14.5c0 2.35.46 2.84 2.95 3.04v.62M916.63 408.53l.35.38c-.1.15-2.1 3.17-5.86 3.17-2.77 0-5.54-1.54-5.54-5.4 0-5.17 3.94-9.4 8.37-10.4.57-.12 1.08-.2 1.57-.2 1.7 0 2.8.83 2.8 2.22 0 .74-.73 1.98-1.77 1.98-.86 0-1.3-.6-1.3-1.22 0-1.2 1.16-.98 1.16-1.62 0-.35-.62-.54-1.1-.54-2.45 0-4.98 1.76-6.3 5.02-.53 1.36-.9 2.93-.9 4.88 0 3 1.73 4.27 3.8 4.27 2.36 0 4.35-2.14 4.73-2.54M931.74 412.16l-.4.53c-5.24-3-8.1-8.6-8.1-14.24 0-6.13 2.9-10.9 8.2-14.06l.3.53c-4.6 3.95-5.64 7.03-5.64 13.43 0 6.17 1 9.92 5.64 13.8M967.1 406.82h-7.83v-.5c2.1-.16 2.55-.73 2.55-2.55v-15.55c0-1.6-.33-2.13-1.4-2.13-.26 0-.7 0-1.22.06v-.53c2.3-.56 3.52-.9 5.24-1.46l.17.13v19.64c0 1.82.37 2.25 2.5 2.38v.5M973.76 385.86c0 .96-.73 1.7-1.72 1.7-.93 0-1.66-.74-1.66-1.7 0-.93.76-1.7 1.7-1.7.95 0 1.68.77 1.68 1.7m2.42 20.96h-7.86v-.5c2.3-.13 2.62-.43 2.62-2.95v-7.53c0-1.55-.26-2.08-1.1-2.08-.3 0-.8 0-1.4.16v-.53l5.15-1.83.13.13v11.64c0 2.45.26 2.82 2.45 2.98v.5M1002.75 406.82h-7.23v-.5c1.85-.2 2.15-.56 2.15-2.48V397c0-2.6-.66-3.7-2.55-3.7-1.56 0-2.56.6-3.55 2v8.37c0 2.16.5 2.62 2.4 2.65v.5h-7.44v-.5c1.9-.13 2.25-.33 2.25-2.35v-7c0-2.3-.73-3.68-2.15-3.68-1.23 0-2.85.62-3.52 1.42-.22.26-.42.5-.42.56v9.22c0 1.43.5 1.76 2.26 1.82v.5h-7.37v-.5c1.86-.03 2.33-.5 2.33-2.42v-8.22c0-1.63-.3-2.2-1.17-2.2-.36 0-.63.04-1.06.14v-.56c1.83-.5 2.92-.86 4.6-1.5l.28.1v2.46h.07c2.18-2.26 3.58-2.55 5.07-2.55 1.78 0 2.9.9 3.5 2.78 1.8-1.92 3.5-2.78 5.4-2.78 2.7 0 3.86 2.05 3.86 5.97v6.73c0 1.5.43 1.92 1.42 2l.87.05v.5M939.34 418l-.24.9h-1.64l-1.83 7.5-.04.26c0 .14.06.28.36.28 0 0 .54-.04 1.4-1.22l.3.26c-.55.73-1.72 2.5-3.1 2.5-.73 0-.92-.58-.92-1.2 0-.3.05-.62.12-.88l1.9-7.5h-1.8l.1-.68c1.77-.33 3.2-1.2 4.16-3.24h.3l-.72 3.03h1.64M960.1 422.23v.23c-2.24.97-4.02 2.7-5.57 4.48l-.47-.44c.54-.78 1.22-1.53 1.93-2.25.2-.2.3-.47.3-.66 0-.24-.17-.48-.6-.48h-14.02v-1.55h14.05c.23 0 .6-.28.6-.5 0-.22-.1-.36-.32-.6-.67-.65-1.4-1.48-1.9-2.25l.46-.44c1.52 1.75 3.3 3.5 5.55 4.45M965.83 422.4h.05l1.34-1.72c1.26-1.62 2.44-2.74 3.82-2.74.9 0 1.4.47 1.4 1.27 0 .52-.2 1.22-.35 1.83l-1.76 7.34c-.36 1.48-.54 2.65-.54 3.38 0 .33.02.63.1.82h-1.77c-.2-.26-.26-.66-.26-1.08 0-.97.33-2.3 2.32-10.23.06-.24.18-.73.18-1.13 0-.4-.26-.68-.65-.68-.94 0-4 3.97-4.7 6.36l-.72 2.46h-1.82l1.8-7.13c.15-.58.3-1.05.3-1.38 0-.2-.04-.3-.3-.3-.5 0-1.03.67-1.4 1.17l-.3-.24c.1-.16.5-.8 1.07-1.36.6-.58 1.46-1.1 1.97-1.1.75 0 .96.4.96.96 0 1-.54 2.6-.75 3.5M979.7 432.05l-.3.38c-3.7-2.1-5.7-6.07-5.7-10.06 0-4.34 2.03-7.7 5.78-9.94l.2.37c-3.25 2.8-3.98 4.98-3.98 9.5 0 4.36.7 7 4 9.75M992.75 418.24l-.1.3c-1.56.15-2.22.57-3.1 1.35l-2.5 2.14 1.5 3.57c.36.83.64 1.4 1.25 1.4.7 0 1.22-1.02 1.73-1.72l.35.26c-.28.5-1.38 3-2.97 3-1.07 0-1.57-1.25-1.82-1.85l-1.48-3.46-1.3 1.15-1.07 3.88h-1.78l3.47-13.8c.05-.15.07-.32.07-.48 0-.26-.24-.52-.76-.52-.2 0-.45 0-.63.05l-.06-.33 3.7-.58-2.65 10.7 3.9-3.5c.27-.24.5-.54.5-.85 0-.28-.38-.44-.6-.44h-.3l.1-.3h4.55M1008.02 423.12h-6.12v6.12h-1.55v-6.12h-6.12v-1.55h6.12v-6.12h1.55v6.12h6.12v1.55M1018.43 428.28h-6.48v-.35c1.74-.1 2.23-.6 2.23-1.88v-10.53c0-.8-.2-1.14-.7-1.14-.24 0-.63.1-1.06.28l-.63.23v-.34l4.2-2.13.2.07v14c0 1 .47 1.43 2.23 1.43v.35M1021.6 412.8l.27-.37c3.6 2.16 5.72 6.07 5.72 10.06 0 4.33-2.07 7.66-5.8 9.93l-.2-.38c3.32-2.74 3.98-4.94 3.98-9.5 0-4.38-.6-7.07-4-9.75M1050.9 399h-.83c-.3-1.27-.73-2.06-1.92-2.06h-3.48c-1.26 0-1.63.7-2.1 2.06h-.82c.23-.87.33-1.96.33-2.9 0-1-.13-2.84-.37-3.9h.84c.47 1.36.8 1.92 2.1 1.92h3.5c1.14 0 1.7-.8 1.93-1.92h.83c-.23.92-.36 1.7-.36 2.65 0 1 .13 3.12.36 4.15m6.2-3.16c0 6.84-4.47 11.45-10.84 11.45-6.44 0-10.85-4.66-10.85-11.56 0-6.73 4.4-11.34 10.86-11.34 6.5 0 10.84 4.88 10.84 11.44m-3.78-.2c0-3.78-1.13-6.9-3.02-8.48-1.2-1-2.52-1.56-4.07-1.56-1.8 0-3.45.73-4.75 2.22-1.42 1.62-2.3 4.84-2.3 8 0 3.94.98 6.92 3 8.78 1.13 1.03 2.6 1.5 4.1 1.5 1.67 0 3.13-.5 4.3-1.6 1.8-1.76 2.74-4.87 2.74-8.85M1064.86 401.55l-.23.9H1063l-1.84 7.5c-.03.06-.05.18-.05.25 0 .14.08.28.38.28 0 0 .54-.05 1.4-1.22l.32.26c-.57.73-1.74 2.5-3.12 2.5-.73 0-.92-.58-.92-1.2 0-.32.05-.62.12-.88l1.9-7.5h-1.8l.1-.68c1.77-.33 3.2-1.2 4.16-3.24h.3l-.72 3.03h1.64M1069.87 384.93l.4-.53c5.07 3.05 8.1 8.6 8.1 14.23 0 6.14-2.93 10.85-8.2 14.06l-.3-.54c4.7-3.88 5.64-7 5.64-13.43 0-6.2-.82-10.02-5.63-13.8"/><path d="M740 833.52h335.4v60.15H740z" fill="#fff" fill-opacity="0"/><path d="M756.62 852.67h-.83c-.3-1.26-.74-2.06-1.94-2.06h-3.48c-1.26 0-1.62.7-2.1 2.07h-.82c.23-.87.33-1.96.33-2.9 0-.98-.14-2.84-.37-3.9h.83c.46 1.36.8 1.92 2.1 1.92h3.5c1.13 0 1.7-.8 1.93-1.93h.82c-.24.93-.37 1.7-.37 2.65 0 1 .13 3.12.37 4.15m6.2-3.15c0 6.83-4.48 11.44-10.85 11.44-6.43 0-10.84-4.64-10.84-11.54 0-6.74 4.38-11.35 10.84-11.35 6.5 0 10.85 4.88 10.85 11.45m-3.78-.2c0-3.78-1.13-6.9-3.02-8.5-1.2-1-2.52-1.55-4.08-1.55-1.8 0-3.45.73-4.74 2.22-1.43 1.62-2.3 4.83-2.3 7.98 0 3.95.97 6.93 3 8.8 1.12 1.02 2.58 1.48 4.1 1.48 1.66 0 3.12-.5 4.28-1.6 1.83-1.75 2.76-4.86 2.76-8.84M765.77 849.05l-.8-.28c.6-2.88 2.1-9.33 2.5-10.7.4-1.2 1.1-1.6 1.8-1.6.84 0 1.6.5 1.6 1.66 0 .25-.13.82-.25 1.1-.5 1.33-3.42 7.17-4.85 9.82M768 865.06h.05l1.33-1.72c1.27-1.6 2.44-2.74 3.83-2.74.92 0 1.4.47 1.4 1.27 0 .5-.2 1.22-.34 1.83l-1.76 7.33c-.35 1.48-.54 2.65-.54 3.38 0 .34.03.64.12.83h-1.78c-.2-.26-.26-.65-.26-1.08 0-.96.33-2.3 2.32-10.22.07-.23.2-.73.2-1.13 0-.4-.27-.68-.67-.68-.94 0-4 3.97-4.7 6.36l-.72 2.46h-1.83l1.8-7.13c.14-.57.3-1.04.3-1.37 0-.2-.04-.3-.3-.3-.5 0-1.03.67-1.4 1.17l-.3-.24c.1-.16.5-.8 1.07-1.36.6-.58 1.45-1.1 1.97-1.1.74 0 .95.4.95.96 0 1-.54 2.6-.75 3.5M781.86 874.72l-.28.37c-3.7-2.12-5.72-6.08-5.72-10.07 0-4.34 2.04-7.7 5.8-9.94l.2.37c-3.26 2.8-4 4.97-4 9.5 0 4.35.72 7 4 9.75M794.9 860.9l-.1.3c-1.57.15-2.23.57-3.12 1.35l-2.48 2.15 1.5 3.57c.35.82.63 1.38 1.24 1.38.7 0 1.22-1 1.74-1.7l.35.25c-.28.5-1.4 3-2.98 3-1.08 0-1.57-1.24-1.83-1.85l-1.48-3.45-1.3 1.15-1.06 3.9h-1.8l3.48-13.82c.05-.14.07-.3.07-.47 0-.26-.23-.5-.75-.5-.2 0-.44 0-.63.03l-.07-.34 3.7-.58-2.64 10.7 3.9-3.5c.27-.24.5-.54.5-.85 0-.28-.37-.44-.6-.44h-.3l.1-.3h4.56M810.18 865.78h-6.12v6.12h-1.54v-6.12h-6.12v-1.54h6.12v-6.12h1.54v6.12h6.12v1.54M820.57 870.94h-6.47v-.35c1.73-.1 2.23-.6 2.23-1.9v-10.5c0-.8-.2-1.16-.7-1.16-.24 0-.64.1-1.06.28l-.64.23v-.33l4.2-2.13.2.06v14c0 1 .48 1.43 2.24 1.43v.34M823.76 855.47l.28-.38c3.6 2.15 5.72 6.06 5.72 10.05 0 4.34-2.06 7.67-5.8 9.94l-.2-.38c3.33-2.75 4-4.95 4-9.5 0-4.38-.6-7.08-4-9.75M864.57 849.88h-19.54v-2.2h19.54v2.2m0 6.63h-19.54v-2.17h19.54v2.18M898.73 860.5h-9.26v-.64c2.6-.16 2.92-.7 2.92-3.48v-15.4c0-.88-.2-1.18-1.2-1.18h-7.66c-.87 0-1.2.2-1.2 1.1v15.85c0 2.42.43 2.98 2.9 3.1l.02.64H876v-.64c2.6-.16 2.96-.56 2.96-3.4V842.3c0-2.6-.4-2.95-2.95-3.15v-.63h22.73v.63c-2.46.2-2.96.6-2.96 3.15v14.5c0 2.35.47 2.85 2.96 3.04v.63M911.4 862.2l.36.38c-.1.14-2.1 3.17-5.87 3.17-2.77 0-5.54-1.55-5.54-5.4 0-5.18 3.94-9.42 8.37-10.4.56-.12 1.08-.2 1.57-.2 1.7 0 2.8.83 2.8 2.2 0 .76-.74 2-1.77 2-.86 0-1.3-.58-1.3-1.22 0-1.2 1.16-.98 1.16-1.6 0-.37-.64-.55-1.13-.55-2.44 0-4.97 1.75-6.3 5-.53 1.37-.9 2.94-.9 4.9 0 3 1.73 4.26 3.8 4.26 2.37 0 4.36-2.14 4.73-2.53M926.52 865.83l-.4.53c-5.24-2.98-8.1-8.6-8.1-14.22 0-6.14 2.9-10.9 8.2-14.07l.3.54c-4.6 3.95-5.64 7.04-5.64 13.44 0 6.17 1 9.9 5.64 13.8M961.87 860.5h-7.82v-.5c2.08-.17 2.55-.73 2.55-2.56V841.9c0-1.6-.33-2.13-1.4-2.13-.26 0-.7 0-1.22.06v-.53c2.3-.56 3.5-.9 5.24-1.46l.16.14v19.63c0 1.83.37 2.26 2.5 2.4v.5M968.54 839.53c0 .97-.73 1.7-1.73 1.7-.9 0-1.64-.73-1.64-1.7 0-.92.76-1.7 1.7-1.7.95 0 1.68.78 1.68 1.7m2.42 20.96h-7.86v-.5c2.3-.14 2.62-.43 2.62-2.95v-7.53c0-1.56-.27-2.1-1.1-2.1-.3 0-.8 0-1.4.17v-.54l5.15-1.82.14.13V857c0 2.47.27 2.83 2.46 3v.5M997.52 860.5h-7.23v-.5c1.85-.2 2.15-.57 2.15-2.5v-6.82c0-2.62-.66-3.72-2.55-3.72-1.56 0-2.56.6-3.55 2.03v8.34c0 2.16.5 2.62 2.4 2.66v.5h-7.44v-.5c1.9-.14 2.26-.33 2.26-2.36v-7c0-2.28-.73-3.68-2.15-3.68-1.22 0-2.85.63-3.5 1.43-.24.25-.44.5-.44.55v9.22c0 1.43.5 1.76 2.25 1.83v.5h-7.35v-.5c1.86-.04 2.32-.5 2.32-2.42v-8.23c0-1.62-.3-2.2-1.16-2.2-.35 0-.62.05-1.05.14v-.57c1.83-.5 2.92-.86 4.6-1.5l.28.1v2.46h.06c2.18-2.26 3.58-2.56 5.07-2.56 1.8 0 2.92.9 3.5 2.78 1.8-1.92 3.5-2.78 5.42-2.78 2.68 0 3.84 2.05 3.84 5.97v6.74c0 1.5.43 1.92 1.42 2l.86.06v.5M934.12 871.68l-.24.9h-1.64l-1.83 7.5c0 .07-.04.18-.04.25 0 .14.07.3.38.3 0 0 .54-.06 1.4-1.23l.3.25c-.55.73-1.72 2.5-3.1 2.5-.73 0-.92-.57-.92-1.2 0-.3.05-.62.12-.87l1.9-7.5h-1.8l.1-.7c1.77-.32 3.2-1.18 4.16-3.22h.3l-.73 3.02h1.65M954.9 875.9v.24c-2.26.96-4.04 2.7-5.6 4.48l-.46-.45c.54-.77 1.22-1.52 1.92-2.25.2-.2.33-.47.33-.66 0-.23-.2-.47-.62-.47h-14.02v-1.55h14.05c.24 0 .62-.3.62-.52 0-.2-.1-.35-.33-.6-.7-.64-1.42-1.46-1.94-2.24l.47-.45c1.53 1.76 3.3 3.5 5.56 4.45M960.6 876.07h.06l1.33-1.72c1.26-1.6 2.43-2.74 3.82-2.74.9 0 1.4.48 1.4 1.28 0 .5-.2 1.22-.35 1.83l-1.76 7.35c-.34 1.47-.53 2.65-.53 3.37 0 .33.03.64.12.82h-1.8c-.2-.26-.25-.65-.25-1.08 0-.96.33-2.3 2.32-10.22.07-.23.2-.73.2-1.12 0-.4-.27-.68-.67-.68-.93 0-3.98 3.96-4.7 6.35l-.7 2.45h-1.84l1.8-7.13c.14-.58.3-1.05.3-1.38 0-.2-.04-.3-.3-.3-.5 0-1.03.68-1.4 1.17l-.3-.23c.1-.16.5-.8 1.07-1.36.6-.57 1.45-1.1 1.97-1.1.75 0 .96.4.96.97 0 1-.54 2.6-.75 3.5M974.47 885.73l-.28.37c-3.72-2.1-5.73-6.07-5.73-10.06 0-4.33 2.04-7.7 5.8-9.94l.2.38c-3.26 2.8-4 4.97-4 9.5 0 4.35.72 7 4 9.75M987.53 871.92l-.1.28c-1.57.16-2.22.58-3.1 1.36l-2.5 2.15 1.5 3.58c.35.82.64 1.38 1.24 1.38.7 0 1.22-1 1.74-1.7l.36.25c-.28.5-1.38 3-2.98 3-1.07 0-1.57-1.23-1.82-1.84l-1.48-3.45-1.32 1.16-1.05 3.9h-1.77l3.47-13.82c.04-.14.07-.3.07-.47 0-.26-.24-.5-.75-.5-.2 0-.45 0-.64.03l-.07-.32 3.72-.6-2.65 10.7 3.92-3.5c.24-.23.48-.53.48-.84 0-.28-.38-.44-.6-.44h-.3l.1-.28h4.55M1002.8 876.8h-6.13v6.1h-1.54v-6.1H989v-1.55h6.13v-6.12h1.54v6.12h6.12v1.54M1013.2 881.95h-6.47v-.35c1.74-.1 2.23-.6 2.23-1.88V869.2c0-.8-.2-1.15-.7-1.15-.24 0-.64.1-1.06.28l-.63.23v-.33l4.2-2.13.2.07v14c0 1 .48 1.43 2.23 1.43v.35M1016.37 866.48l.28-.38c3.6 2.16 5.72 6.07 5.72 10.06 0 4.34-2.06 7.67-5.8 9.94l-.2-.37c3.33-2.75 4-4.95 4-9.5 0-4.38-.6-7.08-4-9.75M1045.68 852.67h-.83c-.3-1.26-.73-2.06-1.92-2.06h-3.5c-1.25 0-1.6.7-2.07 2.07h-.83c.23-.87.33-1.96.33-2.9 0-.98-.14-2.84-.37-3.9h.82c.47 1.36.8 1.92 2.1 1.92h3.5c1.13 0 1.7-.8 1.93-1.93h.83c-.23.93-.37 1.7-.37 2.65 0 1 .15 3.12.38 4.15m6.2-3.15c0 6.83-4.48 11.44-10.84 11.44-6.44 0-10.85-4.64-10.85-11.54 0-6.74 4.37-11.35 10.84-11.35 6.5 0 10.84 4.88 10.84 11.45m-3.78-.2c0-3.78-1.13-6.9-3.02-8.5-1.2-1-2.52-1.55-4.08-1.55-1.8 0-3.45.73-4.74 2.22-1.43 1.62-2.3 4.83-2.3 7.98 0 3.95.97 6.93 3 8.8 1.12 1.02 2.58 1.48 4.1 1.48 1.67 0 3.13-.5 4.3-1.6 1.8-1.75 2.74-4.86 2.74-8.84M1054.83 849.05l-.8-.28c.62-2.88 2.1-9.33 2.5-10.7.4-1.2 1.1-1.6 1.8-1.6.84 0 1.6.5 1.6 1.66 0 .25-.13.82-.24 1.1-.5 1.33-3.44 7.17-4.87 9.82M1059.64 858.1l-.24.9h-1.64l-1.83 7.5c-.02.07-.04.18-.04.25 0 .15.06.3.36.3 0 0 .54-.06 1.4-1.23l.3.25c-.55.73-1.72 2.5-3.1 2.5-.73 0-.92-.57-.92-1.2 0-.3.05-.62.12-.87l1.9-7.5h-1.8l.1-.7c1.77-.3 3.2-1.18 4.16-3.22h.3l-.72 3.02h1.64M1065.3 838.6l.4-.53c5.1 3.06 8.1 8.6 8.1 14.23 0 6.14-2.92 10.85-8.2 14.06l-.3-.53c4.72-3.88 5.65-7 5.65-13.43 0-6.2-.83-10-5.64-13.8"/><path d="M770 913.52h240v60H770z" fill="none"/><use xlink:href="#j" transform="matrix(1,0,0,1,770,913.5245833678803) translate(89.58055555555556 36.266666666666666)"/><use xlink:href="#k" transform="matrix(1,0,0,1,770,913.5245833678803) translate(105.24722222222222 36.266666666666666)"/><path d="M1330 920.72h70.84v47.6H1330z" fill="#fff" fill-opacity="0"/><use xlink:href="#l" transform="matrix(1,0,0,1,1335,925.7247657739825) translate(26.583333333333336 25.066666666666663)"/><path d="M461.75 451.86h80V560h-80z" fill="none"/><path d="M541.75 560c-5.52 0-10-4.48-10-10v-34.07c0-5.53-4.48-10-10-10 5.52 0 10-4.48 10-10v-34.07c0-5.53 4.48-10 10-10" stroke="#000" stroke-width="2" fill="none"/><path d="M461.75 693.52h80v108.15h-80z" fill="none"/><path d="M541.75 801.67c-5.52 0-10-4.48-10-10V757.6c0-5.53-4.48-10-10-10 5.52 0 10-4.48 10-10v-34.08c0-5.52 4.48-10 10-10" stroke="#000" stroke-width="2" fill="none"/><path d="M366.04 736.92h147.92v21.36H366.04z" fill="#fff" fill-opacity="0"/><path d="M372.07 743.58l-.2.8h-1.5l-1.66 6.83c0 .07-.04.18-.04.24 0 .13.07.26.35.26 0 0 .5-.04 1.28-1.1l.28.23c-.5.66-1.58 2.28-2.83 2.28-.66 0-.83-.53-.83-1.1 0-.28.04-.56.1-.8l1.73-6.8h-1.64l.1-.63c1.6-.3 2.9-1.08 3.77-2.94h.27l-.66 2.75h1.5M391.95 753.5h-6.2c-3.4 0-5.84-2.8-5.84-5.95 0-3.16 2.4-5.95 5.8-5.95h6.25v1.4h-6.18c-2.2 0-4.02 1.82-4.4 3.84h10.58v1.4h-10.6c.38 2.03 2.2 3.84 4.4 3.84h6.2v1.4M405.63 756.35l-.25.34c-3.37-1.93-5.2-5.53-5.2-9.15 0-3.95 1.85-7 5.26-9.04l.2.35c-2.97 2.54-3.63 4.52-3.63 8.63 0 3.96.65 6.37 3.63 8.87M409.96 747.57h.04l1.2-1.56c1.16-1.46 2.23-2.48 3.5-2.48.82 0 1.26.42 1.26 1.15 0 .47-.2 1.1-.32 1.66l-1.6 6.67c-.3 1.34-.48 2.4-.48 3.07 0 .3.02.57.1.74h-1.62c-.2-.22-.23-.58-.23-.97 0-.87.3-2.08 2.12-9.3.06-.2.17-.65.17-1 0-.37-.24-.63-.6-.63-.86 0-3.63 3.6-4.27 5.78l-.66 2.23h-1.66l1.65-6.46c.13-.53.28-.96.28-1.26 0-.2-.05-.28-.28-.28-.47 0-.94.62-1.28 1.07l-.28-.2c.1-.16.46-.74.97-1.25.54-.53 1.33-1 1.8-1 .68 0 .87.36.87.87 0 .9-.5 2.36-.68 3.17M427.3 743.8l-.1.25c-1.4.15-2 .53-2.82 1.24l-2.26 1.95 1.37 3.24c.3.73.56 1.24 1.1 1.24.65 0 1.12-.9 1.6-1.55l.3.22c-.24.45-1.25 2.73-2.7 2.73-.97 0-1.42-1.13-1.66-1.68l-1.34-3.14-1.2 1.05-.95 3.53h-1.62l3.15-12.53c.05-.13.07-.28.07-.43 0-.23-.22-.47-.68-.47-.2 0-.4 0-.58.04l-.07-.3 3.36-.52-2.42 9.72 3.56-3.18c.24-.2.45-.5.45-.76s-.35-.4-.56-.4h-.26l.1-.26h4.12M429.4 755.92l-.2-.4c1.17-.8 1.76-1.58 1.76-2.3 0-.13-.12-.26-.3-.26-.16 0-.38.08-.6.08-.8 0-1.25-.36-1.25-1.08 0-.73.52-1.22 1.3-1.22.95 0 1.7.75 1.7 1.86 0 1.27-.92 2.62-2.4 3.32M440.2 747.57h.05l1.22-1.56c1.15-1.46 2.2-2.48 3.47-2.48.83 0 1.28.42 1.28 1.15 0 .47-.2 1.1-.32 1.66l-1.6 6.67c-.32 1.34-.5 2.4-.5 3.07 0 .3.03.57.12.74h-1.62c-.2-.22-.24-.58-.24-.97 0-.87.3-2.08 2.1-9.3.08-.2.18-.65.18-1 0-.37-.23-.63-.6-.63-.84 0-3.6 3.6-4.25 5.78l-.67 2.23h-1.67l1.64-6.46c.13-.53.28-.96.28-1.26 0-.2-.04-.28-.28-.28-.46 0-.93.62-1.27 1.07l-.28-.2c.1-.16.47-.74.98-1.25.53-.53 1.32-1 1.8-1 .67 0 .86.36.86.87 0 .9-.5 2.36-.7 3.17M452.8 756.35l-.25.34c-3.37-1.93-5.2-5.53-5.2-9.15 0-3.95 1.85-7 5.26-9.04l.2.35c-2.96 2.54-3.62 4.52-3.62 8.63 0 3.96.64 6.37 3.62 8.87M464.67 743.8l-.08.25c-1.44.15-2.04.53-2.85 1.24l-2.26 1.95 1.36 3.24c.32.73.57 1.24 1.13 1.24.62 0 1.1-.9 1.56-1.55l.32.22c-.25.45-1.26 2.73-2.7 2.73-.98 0-1.43-1.13-1.67-1.68l-1.33-3.14-1.2 1.05-.95 3.53h-1.62l3.15-12.53c.05-.13.07-.28.07-.43 0-.23-.22-.47-.68-.47-.2 0-.4 0-.58.04l-.06-.3 3.36-.52-2.4 9.72 3.55-3.18c.25-.2.46-.5.46-.76s-.34-.4-.55-.4h-.25l.1-.26h4.12M483.27 748.23h-5.56v5.56h-1.4v-5.57h-5.56v-1.4h5.56v-5.57h1.4v5.56h5.57v1.4M497.46 752.9h-5.88v-.3c1.58-.1 2.02-.54 2.02-1.7v-9.58c0-.72-.2-1.04-.64-1.04-.2 0-.57.1-.95.26l-.57.2v-.3l3.8-1.93.2.08v12.72c0 .9.43 1.3 2.03 1.3v.3M500.36 738.85l.25-.34c3.27 1.97 5.2 5.53 5.2 9.15 0 3.94-1.86 6.97-5.25 9.04l-.2-.35c3.03-2.5 3.63-4.5 3.63-8.63 0-4-.53-6.44-3.62-8.87M507.45 738.85l.26-.34c3.27 1.97 5.2 5.53 5.2 9.15 0 3.94-1.87 6.97-5.26 9.04l-.2-.35c3.04-2.5 3.64-4.5 3.64-8.63 0-4-.54-6.44-3.63-8.87"/><path d="M366.04 496.26h147.92v21.35H366.04z" fill="#fff" fill-opacity="0"/><path d="M372.07 502.92l-.2.8h-1.5l-1.66 6.83c0 .06-.04.17-.04.23 0 .13.07.26.35.26 0 0 .5-.04 1.28-1.1l.28.23c-.5.66-1.58 2.28-2.83 2.28-.66 0-.83-.54-.83-1.1 0-.3.04-.57.1-.8l1.73-6.82h-1.64l.1-.62c1.6-.3 2.9-1.07 3.77-2.93h.27l-.66 2.75h1.5M391.95 512.83h-6.2c-3.4 0-5.84-2.8-5.84-5.95 0-3.15 2.4-5.94 5.8-5.94h6.25v1.4h-6.18c-2.2 0-4.02 1.82-4.4 3.84h10.58v1.4h-10.6c.38 2.03 2.2 3.84 4.4 3.84h6.2v1.4M405.63 515.68l-.25.34c-3.37-1.9-5.2-5.5-5.2-9.14 0-3.94 1.85-7 5.26-9.03l.2.34c-2.97 2.53-3.63 4.5-3.63 8.62 0 3.96.65 6.37 3.63 8.86M409.96 506.9h.04l1.2-1.55c1.16-1.47 2.23-2.5 3.5-2.5.82 0 1.26.43 1.26 1.16 0 .48-.2 1.12-.32 1.67l-1.6 6.67c-.3 1.34-.48 2.4-.48 3.07 0 .3.02.58.1.75h-1.62c-.2-.23-.23-.6-.23-.98 0-.87.3-2.1 2.12-9.3.06-.2.17-.65.17-1 0-.37-.24-.63-.6-.63-.86 0-3.63 3.6-4.27 5.78l-.66 2.23h-1.66l1.65-6.47c.13-.54.28-.96.28-1.26 0-.2-.05-.28-.28-.28-.47 0-.94.62-1.28 1.07l-.28-.2c.1-.15.46-.73.97-1.24.54-.53 1.33-1 1.8-1 .68 0 .87.36.87.87 0 .9-.5 2.37-.68 3.18M427.3 503.13l-.1.26c-1.4.14-2 .52-2.82 1.23l-2.26 1.96 1.37 3.22c.3.75.56 1.26 1.1 1.26.65 0 1.12-.9 1.6-1.55l.3.23c-.24.45-1.25 2.73-2.7 2.73-.97 0-1.42-1.14-1.66-1.7l-1.34-3.13-1.2 1.05-.95 3.53h-1.62l3.15-12.55c.05-.12.07-.27.07-.42 0-.24-.22-.47-.68-.47-.2 0-.4 0-.58.05l-.07-.3 3.36-.53-2.42 9.72 3.56-3.18c.24-.2.45-.5.45-.77 0-.26-.35-.4-.56-.4h-.26l.1-.27h4.12M429.4 515.26l-.2-.4c1.17-.8 1.76-1.58 1.76-2.3 0-.14-.12-.26-.3-.26-.16 0-.38.08-.6.08-.8 0-1.25-.36-1.25-1.1 0-.7.52-1.2 1.3-1.2.95 0 1.7.75 1.7 1.85 0 1.28-.92 2.62-2.4 3.33M440.2 506.9h.05l1.22-1.55c1.15-1.47 2.2-2.5 3.47-2.5.83 0 1.28.43 1.28 1.16 0 .48-.2 1.12-.32 1.67l-1.6 6.67c-.32 1.34-.5 2.4-.5 3.07 0 .3.03.58.12.75h-1.62c-.2-.23-.24-.6-.24-.98 0-.87.3-2.1 2.1-9.3.08-.2.18-.65.18-1 0-.37-.23-.63-.6-.63-.84 0-3.6 3.6-4.25 5.78l-.67 2.23h-1.67l1.64-6.47c.13-.54.28-.96.28-1.26 0-.2-.04-.28-.28-.28-.46 0-.93.62-1.27 1.07l-.28-.2c.1-.15.47-.73.98-1.24.53-.53 1.32-1 1.8-1 .67 0 .86.36.86.87 0 .9-.5 2.37-.7 3.18M452.8 515.68l-.25.34c-3.37-1.9-5.2-5.5-5.2-9.14 0-3.94 1.85-7 5.26-9.03l.2.34c-2.96 2.53-3.62 4.5-3.62 8.62 0 3.96.64 6.37 3.62 8.86M464.67 503.13l-.08.26c-1.44.14-2.04.52-2.85 1.23l-2.26 1.96 1.36 3.22c.32.75.57 1.26 1.13 1.26.62 0 1.1-.9 1.56-1.55l.32.23c-.25.45-1.26 2.73-2.7 2.73-.98 0-1.43-1.14-1.67-1.7l-1.33-3.13-1.2 1.05-.95 3.53h-1.62l3.15-12.55c.05-.12.07-.27.07-.42 0-.24-.22-.47-.68-.47-.2 0-.4 0-.58.05l-.06-.3 3.36-.53-2.4 9.72 3.55-3.18c.25-.2.46-.5.46-.77 0-.26-.34-.4-.55-.4h-.25l.1-.27h4.12M483.27 507.57h-5.56v5.56h-1.4v-5.56h-5.56v-1.4h5.56v-5.57h1.4v5.56h5.57v1.4M497.46 512.25h-5.88v-.32c1.58-.08 2.02-.53 2.02-1.7v-9.57c0-.72-.2-1.04-.64-1.04-.2 0-.57.1-.95.25l-.57.22v-.3l3.8-1.95.2.06v12.73c0 .92.43 1.3 2.03 1.3v.32M500.36 498.2l.25-.35c3.27 1.96 5.2 5.52 5.2 9.14 0 3.93-1.86 6.96-5.25 9.02l-.2-.34c3.03-2.5 3.63-4.5 3.63-8.63 0-3.98-.53-6.43-3.62-8.86M507.45 498.2l.26-.35c3.27 1.96 5.2 5.52 5.2 9.14 0 3.93-1.87 6.96-5.26 9.02l-.2-.34c3.04-2.5 3.64-4.5 3.64-8.63 0-3.98-.54-6.43-3.63-8.86"/><defs><path d="M10 0v-9l31-5v-208l-31-4v-10h95v10l-30 4v93h110v-93l-30-4v-10h94v10l-30 4v208l30 5v9h-94v-9l30-5v-99H75v99l30 5v9H10" id="m"/><path d="M84-170c49 0 66 33 63 87H46c-8 60 38 80 95 63v10C128-2 108 4 88 4 34 4 14-29 14-84c-1-54 22-86 70-86zm33 73c12-57-57-82-69-24-1 7-2 15-2 24h71" id="n"/><path d="M57-145c16-10 35-24 60-25v45c-19 1-8-30-40-17l-20 6v124l29 4v8H7v-8l21-4v-141c-8-3-24 2-21-12h48" id="o"/><path d="M42-37c43 0 23 74-4 81-7 4-14 8-24 11V42c17-5 29-14 31-30C42-2 20 1 21-18c0-12 9-19 21-19" id="p"/><g id="a"><use transform="matrix(0.08703703703703701,0,0,0.08703703703703701,0,0)" xlink:href="#m"/><use transform="matrix(0.08703703703703701,0,0,0.08703703703703701,22.542592592592584,0)" xlink:href="#n"/><use transform="matrix(0.08703703703703701,0,0,0.08703703703703701,36.38148148148147,0)" xlink:href="#o"/><use transform="matrix(0.08703703703703701,0,0,0.08703703703703701,46.73888888888889,0)" xlink:href="#n"/><use transform="matrix(0.08703703703703701,0,0,0.08703703703703701,60.57777777777777,0)" xlink:href="#p"/></g><radialGradient gradientUnits="userSpaceOnUse" id="b" fx="350" fy="570" cx="350" cy="570" r="10.27"><stop offset="0%" stop-color="#7b6ee1" stop-opacity=".4"/><stop offset="60%" stop-color="#7769e0" stop-opacity=".6"/><stop offset="100%" stop-color="#7668dd"/></radialGradient><radialGradient gradientUnits="userSpaceOnUse" id="c" fx="350" fy="683.52" cx="350" cy="683.52" r="10.27"><stop offset="0%" stop-color="#e65555" stop-opacity=".4"/><stop offset="60%" stop-color="#e55050" stop-opacity=".6"/><stop offset="100%" stop-color="#e24f4f"/></radialGradient><radialGradient gradientUnits="userSpaceOnUse" id="d" fx="550" fy="570" cx="550" cy="570" r="10.27"><stop offset="0%" stop-color="#7b6ee1" stop-opacity=".4"/><stop offset="60%" stop-color="#7769e0" stop-opacity=".6"/><stop offset="100%" stop-color="#7668dd"/></radialGradient><radialGradient gradientUnits="userSpaceOnUse" id="e" fx="550" fy="683.52" cx="550" cy="683.52" r="10.27"><stop offset="0%" stop-color="#e65555" stop-opacity=".4"/><stop offset="60%" stop-color="#e55050" stop-opacity=".6"/><stop offset="100%" stop-color="#e24f4f"/></radialGradient><radialGradient gradientUnits="userSpaceOnUse" id="f" fx="550" fy="450" cx="550" cy="450" r="10.27"><stop offset="0%" stop-color="#7b6ee1" stop-opacity=".4"/><stop offset="60%" stop-color="#7769e0" stop-opacity=".6"/><stop offset="100%" stop-color="#7668dd"/></radialGradient><radialGradient gradientUnits="userSpaceOnUse" id="g" fx="550" fy="803.52" cx="550" cy="803.52" r="10.27"><stop offset="0%" stop-color="#e65555" stop-opacity=".4"/><stop offset="60%" stop-color="#e55050" stop-opacity=".6"/><stop offset="100%" stop-color="#e24f4f"/></radialGradient><radialGradient gradientUnits="userSpaceOnUse" id="h" fx="750" fy="803.52" cx="750" cy="803.52" r="10.27"><stop offset="0%" stop-color="#e65555" stop-opacity=".4"/><stop offset="60%" stop-color="#e55050" stop-opacity=".6"/><stop offset="100%" stop-color="#e24f4f"/></radialGradient><radialGradient gradientUnits="userSpaceOnUse" id="i" fx="750" fy="450" cx="750" cy="450" r="10.27"><stop offset="0%" stop-color="#7b6ee1" stop-opacity=".4"/><stop offset="60%" stop-color="#7769e0" stop-opacity=".6"/><stop offset="100%" stop-color="#7668dd"/></radialGradient><use transform="matrix(0.08703703703703701,0,0,0.08703703703703701,0,0)" xlink:href="#p" id="j"/><path d="M32-163c41-10 102-14 102 39v112c8 3 24-2 21 12h-45l-4-17C83 13 3 13 13-46c-2-50 45-50 92-51 4-36-5-70-42-56-6 2-12 4-16 6-4 7 0 23-15 20v-36zM42-47c0 41 41 33 63 22v-59c-34 1-63-1-63 37" id="q"/><path d="M125-118c4-37-41-34-68-26v132l23 4v8H8C5-13 21-9 28-12v-141c-7-3-23 1-20-12h47l2 13c31-23 98-29 98 31v109c7 3 23-1 20 12h-72v-8l22-4v-106" id="r"/><path d="M13-81c0-71 46-101 114-85l-1-72-28-4v-8h57v238c8 3 24-2 21 12h-47l-2-12C80 23 13-1 13-81zm77-74c-37 1-44 33-45 74 0 38 9 66 45 66 14 0 27-3 36-7v-130c-10-1-24-3-36-3" id="s"/><g id="k"><use transform="matrix(0.08703703703703701,0,0,0.08703703703703701,0,0)" xlink:href="#q"/><use transform="matrix(0.08703703703703701,0,0,0.08703703703703701,13.838888888888885,0)" xlink:href="#r"/><use transform="matrix(0.08703703703703701,0,0,0.08703703703703701,29.505555555555546,0)" xlink:href="#s"/></g><path d="M45-37c13 0 21 8 21 21C67-2 57 4 45 5 33 4 23-2 24-16c0-13 8-21 21-21" id="t"/><use transform="matrix(0.08703703703703701,0,0,0.08703703703703701,0,0)" xlink:href="#t" id="l"/></defs></g></svg>